<svg id="OBJECTS" xmlns="http://www.w3.org/2000/svg" xmlns:xlink="http://www.w3.org/1999/xlink" viewBox="0 0 231.27 177.18"><defs><style>.cls-1,.cls-2{fill:none;}.cls-2{clip-path:url(#clip-path);}.cls-3{fill:#f0f0f0;}.cls-4{fill:url(#linear-gradient);}.cls-5{fill:#fff;}.cls-6{fill:#3f3d3d;}.cls-7{fill:#2b2a2a;}.cls-8{fill:#191919;}.cls-9{fill:#8acee2;}.cls-10{fill:#abe6ef;}.cls-11{fill:#70a4c4;}.cls-12{fill:#82bbd8;}.cls-13{fill:#88c8e2;}.cls-14{fill:#586060;}.cls-15{fill:#515151;}.cls-16{fill:#dedeff;}.cls-17{fill:#494949;}.cls-18{fill:#7b8484;}.cls-19{fill:#7e8988;}.cls-20{fill:#475151;}.cls-21{fill:#ea3636;}.cls-22{fill:#f5f5ff;}.cls-23{fill:#f9762d;}.cls-24{fill:#ffcc5a;}.cls-25{fill:#ffda8f;}.cls-26{fill:#e8ab31;}.cls-27{fill:#f7c546;}.cls-28{fill:#dd9d2c;}.cls-29{fill:#c4871c;}.cls-30{fill:#f0eff9;}.cls-31{fill:#c8c6f7;}.cls-32{fill:#9292ea;}.cls-33{fill:#ceceef;}.cls-34{fill:#4d4d96;}.cls-35{fill:#69818e;}.cls-36{fill:#7c97a5;}.cls-37{fill:#514e4e;}.cls-38{fill:#a55200;}.cls-39{fill:#e8a02d;}.cls-40{fill:#dd8317;}.cls-41{fill:#7c4100;}.cls-42{fill:#a05b00;}.cls-43{fill:#ba6908;}.cls-44{fill:#dfe9ed;}.cls-45{clip-path:url(#clip-path-3);}.cls-46{fill:url(#radial-gradient);}.cls-47{fill:url(#radial-gradient-2);}.cls-48{fill:#0d59d3;}.cls-49{fill:#2580ef;}.cls-50{fill:#50a7ef;}.cls-51{fill:#aec5d1;}.cls-52{fill:#6b9922;}.cls-53{fill:#5f7224;}.cls-54{fill:#637537;}.cls-55{fill:#ace52e;}.cls-56{fill:#79c423;}.cls-57{fill:#6b4e0d;}.cls-58{fill:#b27d1f;}.cls-59{fill:#e2b369;}.cls-60{fill:#68a521;}.cls-61{fill:#4f8e13;}.cls-62{fill:#4f772d;}.cls-63{fill:#3e6019;}.cls-64{fill:#ddad9b;}.cls-65{fill:#f7d7cb;}.cls-66{fill:#fff1eb;}.cls-67{fill:#bc9186;}.cls-68{fill:#447212;}.cls-69{fill:#5e6e77;}.cls-70{fill:#939393;}.cls-71{fill:#ea4970;}.cls-72{fill:#c42653;}.cls-73{fill:#f97393;}.cls-74{fill:#701e36;}.cls-75{fill:#db315e;}.cls-76{fill:#d61d1d;}.cls-77{fill:#992e48;}.cls-78{fill:#f0f0ff;}.cls-79{fill:#a0a0a0;}.cls-80{fill:#374f66;}.cls-81{fill:#dce0cd;}.cls-82{fill:#c6c9b8;}.cls-83{fill:#a7aa93;}.cls-84{fill:#828476;}.cls-85{fill:#6b6d5d;}.cls-86{fill:#868774;}.cls-87{fill:url(#linear-gradient-2);}.cls-88{fill:#e2a52b;}.cls-89{fill:url(#linear-gradient-3);}.cls-90{fill:#404649;}.cls-91{fill:url(#linear-gradient-4);}.cls-92{fill:#aaa;}.cls-93{fill:#ef584d;}.cls-94{fill:#d12c28;}.cls-95{fill:url(#linear-gradient-5);}.cls-96{fill:url(#linear-gradient-6);}.cls-97{fill:url(#linear-gradient-7);}.cls-98{fill:url(#linear-gradient-8);}.cls-99{fill:url(#linear-gradient-9);}.cls-100{fill:url(#linear-gradient-10);}.cls-101{fill:url(#linear-gradient-11);}.cls-102{fill:url(#linear-gradient-12);}.cls-103{fill:url(#linear-gradient-13);}.cls-104{fill:url(#linear-gradient-14);}.cls-105{fill:#333131;}.cls-106{fill:#756a6a;}.cls-107{fill:#514b4b;}.cls-108{fill:#bf311f;}.cls-109{fill:#9b2913;}.cls-110{fill:#d34c42;}.cls-111{fill:#bbbbbc;}.cls-112{fill:url(#radial-gradient-3);}.cls-113{fill:url(#radial-gradient-4);}.cls-114{fill:#797b7c;}.cls-115{fill:#3386ec;}.cls-116{fill:#c15d02;}.cls-117{fill:#acacac;}.cls-118{fill:#7f7f7f;}.cls-119{fill:#5e5a5a;}.cls-120{fill:#a06044;}.cls-121{fill:#754632;}.cls-122{fill:#492b20;}.cls-123{fill:#6b3f29;}.cls-124{fill:#4db20b;}.cls-125{fill:#6bd12a;}.cls-126{fill:#83e046;}.cls-127{fill:url(#linear-gradient-15);}.cls-128{fill:url(#radial-gradient-5);}.cls-129{fill:url(#linear-gradient-16);}.cls-130{fill:url(#radial-gradient-6);}.cls-131{fill:#a88f7d;}.cls-132{fill:url(#linear-gradient-17);}.cls-133{fill:url(#linear-gradient-18);}.cls-134{fill:#a3c7cc;}.cls-135{fill:#cad9dd;}.cls-136{fill:url(#linear-gradient-19);}.cls-137{fill:#7b95a3;}.cls-138{fill:#4c5960;}.cls-139{fill:#b8ccd8;}.cls-140{fill:#aac1ce;}.cls-141{fill:#63757f;}</style><clipPath id="clip-path"><polygon class="cls-1" points="-11.43 -0.24 -10.33 -0.24 -11.43 0.85 -11.43 -0.24"/></clipPath><linearGradient id="linear-gradient" x1="539.62" y1="-71.83" x2="773.1" y2="-71.83" gradientTransform="matrix(0.95, 0.19, -0.19, 0.94, -476.06, 48.84)" gradientUnits="userSpaceOnUse"><stop offset="0" stop-color="#00bfc2"/><stop offset="0.49" stop-color="#00bdc4"/><stop offset="0.67" stop-color="#00b6c9"/><stop offset="0.79" stop-color="#00abd4"/><stop offset="0.89" stop-color="#009ae2"/><stop offset="0.98" stop-color="#0084f5"/><stop offset="1" stop-color="#007dfb"/></linearGradient><clipPath id="clip-path-3" transform="translate(-41.45 -10.01)"><polygon class="cls-2" points="-13.63 -2.44 -14.72 -2.44 -13.63 -3.54 -13.63 -2.44"/></clipPath><radialGradient id="radial-gradient" cx="606.55" cy="72.88" r="3.7" gradientTransform="matrix(-1.15, -0.08, 0, -1, 785.01, 196.16)" gradientUnits="userSpaceOnUse"><stop offset="0" stop-color="#fff"/><stop offset="1"/></radialGradient><radialGradient id="radial-gradient-2" cx="606.55" cy="72.88" r="3.7" gradientTransform="matrix(-1.15, -0.08, 0, -1, 785.01, 196.16)" gradientUnits="userSpaceOnUse"><stop offset="0" stop-color="#5284ff"/><stop offset="1" stop-color="#636363"/></radialGradient><linearGradient id="linear-gradient-2" x1="137.35" y1="94.91" x2="138.7" y2="92.49" gradientTransform="matrix(1, 0, 0, -1, 0, 191.89)" gradientUnits="userSpaceOnUse"><stop offset="0" stop-color="#f9b74b"/><stop offset="1" stop-color="#a55200"/></linearGradient><linearGradient id="linear-gradient-3" x1="739.76" y1="92.01" x2="738.87" y2="90.34" gradientTransform="translate(764.85 191.89) rotate(180) scale(0.85 1)" gradientUnits="userSpaceOnUse"><stop offset="0" stop-color="#c4c4c4"/><stop offset="1" stop-color="#636363"/></linearGradient><linearGradient id="linear-gradient-4" x1="748.04" y1="87.48" x2="746.29" y2="83.83" gradientTransform="translate(723.4 181.88) rotate(180) scale(0.85 1)" gradientUnits="userSpaceOnUse"><stop offset="0" stop-color="#ededed"/><stop offset="1" stop-color="#aaa"/></linearGradient><linearGradient id="linear-gradient-5" x1="740.87" y1="90.87" x2="744.16" y2="90.87" gradientTransform="translate(764.85 191.89) rotate(180) scale(0.85 1)" gradientUnits="userSpaceOnUse"><stop offset="0" stop-color="#fcbc2b"/><stop offset="1" stop-color="#a55a00"/></linearGradient><linearGradient id="linear-gradient-6" x1="742.32" y1="90.21" x2="745.61" y2="90.21" xlink:href="#linear-gradient-5"/><linearGradient id="linear-gradient-7" x1="743.73" y1="89.44" x2="747.03" y2="89.44" xlink:href="#linear-gradient-5"/><linearGradient id="linear-gradient-8" x1="745.18" y1="88.79" x2="748.47" y2="88.79" xlink:href="#linear-gradient-5"/><linearGradient id="linear-gradient-9" x1="746.63" y1="88.13" x2="749.92" y2="88.13" xlink:href="#linear-gradient-5"/><linearGradient id="linear-gradient-10" x1="748.07" y1="87.36" x2="751.37" y2="87.36" xlink:href="#linear-gradient-5"/><linearGradient id="linear-gradient-11" x1="749.49" y1="86.7" x2="752.78" y2="86.7" xlink:href="#linear-gradient-5"/><linearGradient id="linear-gradient-12" x1="750.94" y1="86.04" x2="754.23" y2="86.04" xlink:href="#linear-gradient-5"/><linearGradient id="linear-gradient-13" x1="752.37" y1="85.39" x2="755.66" y2="85.39" xlink:href="#linear-gradient-5"/><linearGradient id="linear-gradient-14" x1="753.81" y1="84.73" x2="757.1" y2="84.73" xlink:href="#linear-gradient-5"/><radialGradient id="radial-gradient-3" cx="563.36" cy="80.06" r="3.7" xlink:href="#radial-gradient"/><radialGradient id="radial-gradient-4" cx="563.36" cy="80.06" r="3.7" xlink:href="#radial-gradient-2"/><linearGradient id="linear-gradient-15" x1="115.54" y1="111.19" x2="112.37" y2="111.15" gradientTransform="matrix(1, 0, 0, -1, 0, 191.89)" gradientUnits="userSpaceOnUse"><stop offset="0.02" stop-color="#562300"/><stop offset="1" stop-color="#ea7839"/></linearGradient><radialGradient id="radial-gradient-5" cx="113.32" cy="116.03" r="4.84" gradientTransform="matrix(1, 0, 0, -1, 0, 191.89)" gradientUnits="userSpaceOnUse"><stop offset="0" stop-color="#75c620"/><stop offset="1" stop-color="#3f7a00"/></radialGradient><linearGradient id="linear-gradient-16" x1="211.69" y1="82.12" x2="208.52" y2="82.07" xlink:href="#linear-gradient-15"/><radialGradient id="radial-gradient-6" cx="209.47" cy="86.97" r="4.84" xlink:href="#radial-gradient-5"/><linearGradient id="linear-gradient-17" x1="103.71" y1="98.44" x2="105.36" y2="98.44" gradientTransform="matrix(1, 0, 0, -1, 0, 191.89)" gradientUnits="userSpaceOnUse"><stop offset="0" stop-color="#e5e5e5"/><stop offset="1" stop-color="#6d6d6d"/></linearGradient><linearGradient id="linear-gradient-18" x1="104.32" y1="107.38" x2="105.15" y2="107.38" xlink:href="#linear-gradient-17"/><linearGradient id="linear-gradient-19" x1="104.48" y1="110.51" x2="105.11" y2="110.51" gradientTransform="matrix(1, 0, 0, -1, 0, 191.89)" gradientUnits="userSpaceOnUse"><stop offset="0" stop-color="#3180f4"/><stop offset="1" stop-color="#003684"/></linearGradient></defs><title>details-2-office-team-work</title><path class="cls-3" d="M193.07,132.29c-43.88,15.8-76.91,84.58-128.58,29.18S55.71,21.92,117.92,12,252.1,29.16,265,73.37C287.2,148.85,222.47,121.64,193.07,132.29Z" transform="translate(-41.45 -10.01)"/><path class="cls-4" d="M196.25,136.78c-43.88,15.8-76.9,84.59-128.58,29.19S58.89,26.42,121.1,16.54,255.28,33.66,268.22,77.87C290.28,153.46,225.66,126.25,196.25,136.78Z" transform="translate(-41.45 -10.01)"/><path class="cls-5" d="M158.4,38.7l-.55-1.53-.54,1.53a5.6,5.6,0,0,1-3,3h0a5.55,5.55,0,0,1,3,3l.54,1.53.55-1.53a5.57,5.57,0,0,1,3-3h0A5,5,0,0,1,158.4,38.7Z" transform="translate(-41.45 -10.01)"/><path class="cls-5" d="M98.94,149.84l-.55-1.54-.55,1.54a5.57,5.57,0,0,1-3,3h0a5.59,5.59,0,0,1,3,3l.55,1.53.55-1.53a5.59,5.59,0,0,1,3-3h0A4.92,4.92,0,0,1,98.94,149.84Z" transform="translate(-41.45 -10.01)"/><path class="cls-5" d="M243.1,79l-.33-1-.33,1a3.53,3.53,0,0,1-2,2h0a3.52,3.52,0,0,1,2,2l.33,1,.33-1a3.52,3.52,0,0,1,2-2h0A3.23,3.23,0,0,1,243.1,79Z" transform="translate(-41.45 -10.01)"/><path class="cls-5" d="M75.68,90.16l-.33-1-.33,1a3.5,3.5,0,0,1-2,2h0a3.52,3.52,0,0,1,2,2l.33,1,.33-1a3.51,3.51,0,0,1,2-2h0A3.85,3.85,0,0,1,75.68,90.16Z" transform="translate(-41.45 -10.01)"/><polygon id="_37" data-name="37" class="cls-6" points="71.75 128.2 62.2 114.6 135.71 87.39 178.17 117.12 178.17 119.75 117.5 154.64 71.75 128.2"/><g id="_36" data-name="36"><path class="cls-7" d="M185.06,137.22a55.12,55.12,0,0,0,5.38,2.86,3.39,3.39,0,0,0,1.86.11c1-.22,13.83-7.46,13.83-7.46s1.2-1,.87-1.43a45.83,45.83,0,0,0-4.71-3.51l-17.45,7.46v1.32l.11.32Z" transform="translate(-41.45 -10.01)"/><path class="cls-8" d="M192.08,136.68a6.65,6.65,0,0,1,1.76.32c.33.22.44.66.66.77s.44.11,1.09-.22a10.72,10.72,0,0,0,1.65-1.75l-2.3-1.87-3.08,1.54Z" transform="translate(-41.45 -10.01)"/><path class="cls-8" d="M202.4,131.08s1.09-.33,1.42,0,.44.77.66.77.66-.11.66-.11a7.32,7.32,0,0,0,.66-1.32,13.77,13.77,0,0,0-.44-1.53l-1.87-.11-1.09.76Z" transform="translate(-41.45 -10.01)"/><path class="cls-7" d="M194,138c-.22.44-.22,1.32-.55,1.43s-.77-.44-.88-.55a1.61,1.61,0,0,1-.22-2.09c.33-.76,1-1,1.43-.65.22.22.77.44.77.76S194.06,137.66,194,138Z" transform="translate(-41.45 -10.01)"/><path class="cls-7" d="M203.93,132.29c-.22.44-.22,1.31-.55,1.42s-.76-.44-.87-.55a1.59,1.59,0,0,1-.22-2.08c.33-.77,1-1,1.42-.66.22.22.77.44.77.77S204,132,203.93,132.29Z" transform="translate(-41.45 -10.01)"/><path class="cls-9" d="M196.69,123.07c-.33.11-6.36,3.29-6.36,3.29l-2.63,3.73A33.15,33.15,0,0,0,184,133a3.34,3.34,0,0,0-.22,1.86c.11.55.11.77.32,1a8.1,8.1,0,0,0,.66.55l4.72,2.52a5.65,5.65,0,0,0,1.76.22c.54-.11,1.09-.11,1.2-.44a7.35,7.35,0,0,1,.66-2.3,2.29,2.29,0,0,1,1.65-.77c.33.11.33.22.33.66V137s0,.55.33.66,6.91-3.73,6.91-3.73a2.93,2.93,0,0,0,.44-.88,14.84,14.84,0,0,1,.54-2,4.19,4.19,0,0,1,1.43-1c.44,0,.44.22.55.44V131s-.33.66,0,.77,1-.44,1.1-.77a3.83,3.83,0,0,0,.87-2.3c0-1,.11-1.65-.22-2a13.59,13.59,0,0,1-1.86-1.64c-.11-.33-5.49-3.19-5.92-3l-3.08,1.32S197,123,196.69,123.07Z" transform="translate(-41.45 -10.01)"/><path class="cls-10" d="M184.18,133.05l6,3.41,3.95-2.64-.44-.55-5.82-3-.21-.11a19.44,19.44,0,0,0-1.87,1.32c-.11.11-1.32,1-1.76,1.43C183.75,133.16,184.18,133.05,184.18,133.05Z" transform="translate(-41.45 -10.01)"/><path class="cls-11" d="M206.79,126.8h0c-.11.22-1.43-1.43-1.43-1.43l-.33-.21-.33-.11-.22-.11h-.22l-.33.11-2.3,1.2-5.93,3-2,4.61s-3.18,2.42-3.51,2.53-.33,0-.33,0-5.16-2.86-5.49-3.08-.33-.32-.33-.32,0,.1-.1.1a3.39,3.39,0,0,0-.22,1.87c.11.55.11.77.32,1a8.1,8.1,0,0,0,.66.55l4.72,2.52a5.65,5.65,0,0,0,1.76.22c.54-.11,1.09-.11,1.2-.44a7.35,7.35,0,0,1,.66-2.3,2.29,2.29,0,0,1,1.65-.77c.33.11.33.22.33.66v.76s0,.55.33.66,6.91-3.73,6.91-3.73a2.93,2.93,0,0,0,.44-.88,14.84,14.84,0,0,1,.54-2,4.19,4.19,0,0,1,1.43-1c.44,0,.44.22.55.44v.44s-.33.66,0,.77,1-.44,1.1-.77a3.83,3.83,0,0,0,.87-2.3C207,127.68,207.11,127.13,206.79,126.8Z" transform="translate(-41.45 -10.01)"/><path class="cls-12" d="M203.93,130.31Z" transform="translate(-41.45 -10.01)"/><path class="cls-12" d="M206.68,128.23c-.11.55-.11.55-.55.88a4.83,4.83,0,0,1-1.65,1c.44,0,.44.22.44.44V131s-.33.66,0,.77,1-.44,1.1-.77a3.83,3.83,0,0,0,.87-2.3c0-1,.11-1.65-.32-2A3.09,3.09,0,0,1,206.68,128.23Z" transform="translate(-41.45 -10.01)"/><path class="cls-12" d="M202.51,133.05a13.52,13.52,0,0,1,.55-2,1.39,1.39,0,0,1,.87-.66l-10.2,5.49h0c.33-.22.77-.33.88-.22.33.11.33.22.33.66v.76s0,.55.33.66,6.91-3.73,6.91-3.73A9.34,9.34,0,0,0,202.51,133.05Z" transform="translate(-41.45 -10.01)"/><path class="cls-12" d="M193.62,135.8s-1.21.88-1.76,1.2a2.16,2.16,0,0,1-2,0l-.11.77.11,1.1a3.66,3.66,0,0,0,1.54.11c.54-.11.76-.11.87-.44a7.35,7.35,0,0,1,.66-2.3,6.74,6.74,0,0,0,.66-.44Z" transform="translate(-41.45 -10.01)"/><path class="cls-13" d="M190.66,138.65c-.55-.33-.44-.33-.55-.77a6.85,6.85,0,0,1,.33-1.64.53.53,0,0,1-.44,0s-5.16-2.86-5.49-3.08-.33-.32-.33-.32,0,.11-.11.11a3.44,3.44,0,0,0-.21,1.86c.11.55.11.77.32,1a8.1,8.1,0,0,0,.66.55l4.72,2.52a5.65,5.65,0,0,0,1.76.22h.43C191.21,139,190.77,138.87,190.66,138.65Z" transform="translate(-41.45 -10.01)"/><path class="cls-14" d="M187.91,130.2l2.31-3.29a15.26,15.26,0,0,0,2.3,1.21c1.43.66,2.86,1.2,2.86,1.2l-1.76,3.84s-2.19-1.09-3.07-1.64Z" transform="translate(-41.45 -10.01)"/><path class="cls-15" d="M197.57,128.45c0,.11.88,2.74.88,2.74l-.44.22c-.44.22-2.85,1.54-2.85,1.54s-.44.1-.55,0a.53.53,0,0,1,0-.44l1.42-3.19Z" transform="translate(-41.45 -10.01)"/><polygon class="cls-15" points="156.44 118.33 157.43 120.96 160.5 119.31 159.3 116.9 156.44 118.33"/><path class="cls-15" d="M201.08,126.8l1.21,2.31,3.29-1.87s-1.21-1.87-1.65-1.87C203.82,125.37,201.08,126.8,201.08,126.8Z" transform="translate(-41.45 -10.01)"/><path class="cls-8" d="M198.34,132.73a.48.48,0,0,1-.55.11c-.11,0-.22-.22-.22-.33s.22-.22.33-.33.22-.11.33,0,.22.22.22.33A.38.38,0,0,1,198.34,132.73Z" transform="translate(-41.45 -10.01)"/><path class="cls-16" d="M197.79,132.84a2.4,2.4,0,0,0,.55-.33.38.38,0,0,0,.11-.22c-.11-.11-.66.33-.66.33s-.33.11-.22.22Z" transform="translate(-41.45 -10.01)"/><path class="cls-8" d="M202,130.86a.48.48,0,0,1-.55.11c-.11,0-.22-.22-.22-.33s.22-.22.33-.33.22-.11.33,0,.22.22.22.33A.34.34,0,0,0,202,130.86Z" transform="translate(-41.45 -10.01)"/><path class="cls-16" d="M201.41,131a2.4,2.4,0,0,0,.55-.33.38.38,0,0,0,.11-.22c-.11-.11-.66.33-.66.33s-.33.11-.22.22Z" transform="translate(-41.45 -10.01)"/><path class="cls-8" d="M195.38,137.22v-.44a22,22,0,0,0-.55-3,1.39,1.39,0,0,0-.88-.66h0l1.75-4h0l2-1,1.21,3.4.11,3.62h0Zm-1.32-4.06a1.39,1.39,0,0,1,.88.66,19.28,19.28,0,0,1,.54,3v.33l3.52-1.86-.11-3.62-1.21-3.4-1.87.88Z" transform="translate(-41.45 -10.01)"/><path class="cls-8" d="M199,135.36h0l-.11-3.73-1.21-3.4,3.18-1.54,1.87,3.4h0a8.93,8.93,0,0,0-.55,1.1c-.11.55-.33,2.52-.33,2.52h0Zm-1.32-7.13,1.21,3.4.11,3.62,2.74-1.65a12.18,12.18,0,0,1,.33-2.52,2.46,2.46,0,0,1,.55-1.1l-.11-.22-1.65-3.07Z" transform="translate(-41.45 -10.01)"/><path class="cls-17" d="M187.91,130.31s0,.44.22.55,4.17,2.19,4.17,2.19a.53.53,0,0,0,.44,0H193Z" transform="translate(-41.45 -10.01)"/><path class="cls-10" d="M190.33,126.36a9.86,9.86,0,0,0,2.3,1.43l3.07,1.42,8.23-4.05.44-.11.44.11h.11l.33.21-.55-.54L200,122.19a2.22,2.22,0,0,0-.66-.22,4.49,4.49,0,0,0-1.09.33C198.23,122.41,190.33,126.36,190.33,126.36Z" transform="translate(-41.45 -10.01)"/><path class="cls-15" d="M194.61,138.43c-.33.77-.88,1.21-1.43,1a1.61,1.61,0,0,1-.22-2.09c.33-.76,1-1,1.43-.65A1.8,1.8,0,0,1,194.61,138.43Z" transform="translate(-41.45 -10.01)"/><path class="cls-18" d="M194.28,138.32c-.22.44-.55.77-.88.55a1,1,0,0,1-.11-1.32.73.73,0,0,1,.88-.44A2.07,2.07,0,0,1,194.28,138.32Z" transform="translate(-41.45 -10.01)"/><path class="cls-15" d="M204.7,132.84c-.33.76-.88,1.2-1.43,1a1.6,1.6,0,0,1-.21-2.08c.32-.77,1-1,1.42-.66A1.54,1.54,0,0,1,204.7,132.84Z" transform="translate(-41.45 -10.01)"/><path class="cls-18" d="M204.37,132.62c-.22.43-.55.76-.88.54a1,1,0,0,1-.11-1.31.73.73,0,0,1,.88-.44A1.18,1.18,0,0,1,204.37,132.62Z" transform="translate(-41.45 -10.01)"/><path class="cls-19" d="M190.33,126.91,188,130.2l.88.44a5.42,5.42,0,0,0,3.29-.55,4.37,4.37,0,0,0,1.65-1.42h0c-.44-.22-.77-.33-1.21-.55A23.29,23.29,0,0,1,190.33,126.91Z" transform="translate(-41.45 -10.01)"/><path class="cls-7" d="M194.83,132.84a.63.63,0,0,0,.65.43c.55,0,.55-.22.55-.22s0-.43-.33-.54a2.86,2.86,0,0,0-.87-.33l-.11.22.22.11Z" transform="translate(-41.45 -10.01)"/><path class="cls-20" d="M187.91,129.76a.32.32,0,0,1-.32-.33V129s.22-.22.32-.11l.44.22Z" transform="translate(-41.45 -10.01)"/><path class="cls-17" d="M183.75,133.93s0,.33.76.77c.33.22,3.51,1.87,3.73,2.08a9.52,9.52,0,0,0,1.87.77A.87.87,0,0,0,191,137a3,3,0,0,0,.11-.87l-.33.44-.44.11-.77-.33-.66-.44-3.07-1.76-.55-.33-.88-.22-.33-.65-.21.65Z" transform="translate(-41.45 -10.01)"/><path class="cls-17" d="M184.07,135.8s.55.44.66.22a1.1,1.1,0,0,0,.11-.44l3.73,2s-.11.44.11.66a.86.86,0,0,0,.44.44,1.36,1.36,0,0,1,.33.22l-4.83-2.52-.33-.33Z" transform="translate(-41.45 -10.01)"/><path class="cls-21" d="M206.79,126.91l-.88.77a.82.82,0,0,0,.44.88c.54.22.65.11.65.11a5.89,5.89,0,0,0,0-1.43Z" transform="translate(-41.45 -10.01)"/><path class="cls-22" d="M185.17,135v-1.54a.61.61,0,0,0-.22-.76h0a.67.67,0,0,0-.88,0l-.1.11a2.09,2.09,0,0,0-.22.76v.66Z" transform="translate(-41.45 -10.01)"/><path class="cls-22" d="M188.24,136.78l1-1a1.15,1.15,0,0,1,.66-.33c.33,0,.55-.11.88.11l.22.22v.33s0,1-.22,1.2a1,1,0,0,1-1,.22C189.45,137.44,188.24,136.78,188.24,136.78Z" transform="translate(-41.45 -10.01)"/><path class="cls-23" d="M190.88,137.33c.22-.22.22-1.2.22-1.2v-.33l-.22-.22c-.22.33-.33,1-.55,1.31a1.57,1.57,0,0,1-.88.44h0a1.86,1.86,0,0,0,.55.22A.91.91,0,0,0,190.88,137.33Z" transform="translate(-41.45 -10.01)"/><path class="cls-23" d="M184.29,134.59a1.69,1.69,0,0,1-.22-.88,3.92,3.92,0,0,1,.22-1h0l-.11.11a2.16,2.16,0,0,0-.21.76v.66l.32.33Z" transform="translate(-41.45 -10.01)"/><path class="cls-16" d="M206.89,128.23c-.43.22-.65.11-.76,0,.11.11.11.22.33.22.54.22.65.11.65.11V128C207,128.23,206.89,128.23,206.89,128.23Z" transform="translate(-41.45 -10.01)"/></g><polygon id="_35" data-name="35" class="cls-6" points="71.31 108.23 132.42 73.56 178.39 100.01 117.5 134.89 71.31 108.23"/><g id="_34" data-name="34"><path class="cls-7" d="M132.51,124.94a57.39,57.39,0,0,0,5.27,2.85,3.37,3.37,0,0,0,1.86.11c1-.22,13.94-7.35,13.94-7.35s1.2-.88.87-1.43a49.82,49.82,0,0,0-4.71-3.62l-17.56,7.35v1.32l.11.33Z" transform="translate(-41.45 -10.01)"/><path class="cls-8" d="M139.53,124.5a6.75,6.75,0,0,1,1.76.33c.33.22.44.65.66.76s.43.11,1.09-.22,1.76-1.75,1.76-1.75l-2.31-2-3.07,1.43Z" transform="translate(-41.45 -10.01)"/><path class="cls-8" d="M150,119s1.1-.33,1.43,0,.44.77.66.77.66-.11.66-.11a7.32,7.32,0,0,0,.66-1.32c0-.22-.33-1.53-.33-1.53l-1.87-.22-1.1.77Z" transform="translate(-41.45 -10.01)"/><path class="cls-7" d="M141.4,125.81c-.22.44-.22,1.32-.55,1.43s-.77-.44-.88-.55a1.59,1.59,0,0,1-.22-2.08c.44-.66,1-1,1.43-.66.22.22.77.44.77.77S141.51,125.48,141.4,125.81Z" transform="translate(-41.45 -10.01)"/><path class="cls-7" d="M151.49,120.22c-.22.44-.22,1.32-.55,1.42s-.77-.43-.88-.54a1.62,1.62,0,0,1-.21-2.09c.43-.66,1-1,1.42-.66.22.22.77.44.77.77S151.6,119.89,151.49,120.22Z" transform="translate(-41.45 -10.01)"/><path class="cls-24" d="M132.07,124.06l4.72,2.52a10.55,10.55,0,0,0,1.65.33c.54-.11,1.09-.11,1.2-.44s.22-1.75.66-2.19a2.29,2.29,0,0,1,1.65-.77c.32.11.32.22.32.66v.77s0,.54.33.65,6.92-3.62,6.92-3.62a2.66,2.66,0,0,0,.43-.87,13.3,13.3,0,0,1,.55-2,3.73,3.73,0,0,1,1.54-1c.44,0,.44.22.55.44V119s-.33.66,0,.77,1-.44,1.09-.77a3.52,3.52,0,0,0,.88-2.3c0-1,.11-1.65-.22-2s-5.48-3.07-5.81-3.18-.55-.22-.88,0l-2,.66-1.43-.88a1.5,1.5,0,0,0-.77,0c-.33.11-5.48,2.85-5.48,2.85l-2.64,3.62s-3.62,2.42-3.73,2.86a4.69,4.69,0,0,0-.33,1.86,4.53,4.53,0,0,0,.22,1A2.48,2.48,0,0,0,132.07,124.06Z" transform="translate(-41.45 -10.01)"/><path class="cls-25" d="M131.52,120.66l6.15,3.51,4-2.53-.44-.54L135.47,118l-.22-.11s-1.86,1.21-2,1.32-1.32,1-1.76,1.32C131.3,120.88,131.52,120.66,131.52,120.66Z" transform="translate(-41.45 -10.01)"/><path class="cls-25" d="M154.45,115.06c0-.11-.11-.22-.22-.33-.33-.33-5.48-3.07-5.81-3.18s-.55-.22-.88,0a3.32,3.32,0,0,1-1,.33l6.81,3.73Z" transform="translate(-41.45 -10.01)"/><path class="cls-26" d="M154.23,114.73h0a.82.82,0,0,1-.33.33l-2.08.77-.33.11-2.3-1.87-5.93,2.86-2,4.61S138,124,137.78,124s-.33,0-.33,0-5.16-2.85-5.49-3.18-.33-.33-.33-.33,0,.11-.11.11a4.69,4.69,0,0,0-.33,1.86,4.53,4.53,0,0,0,.22,1,2.42,2.42,0,0,0,.66.55l4.72,2.52a10.55,10.55,0,0,0,1.65.33c.54-.11,1.09-.11,1.2-.44s.22-1.75.66-2.19a2.29,2.29,0,0,1,1.65-.77c.32.11.32.22.32.66v.77s0,.54.33.65,6.92-3.62,6.92-3.62A2.66,2.66,0,0,0,150,121a13.3,13.3,0,0,1,.55-2,3.73,3.73,0,0,1,1.54-1c.44,0,.44.22.55.44v.44s-.33.66,0,.77,1-.44,1.09-.77a3.52,3.52,0,0,0,.88-2.3C154.56,115.72,154.56,115.06,154.23,114.73Z" transform="translate(-41.45 -10.01)"/><path class="cls-27" d="M151.49,118.24Z" transform="translate(-41.45 -10.01)"/><path class="cls-27" d="M154.23,116.16c-.11.55-.22.33-.55.88s-1,.76-1.64,1c.44,0,.44.22.44.44v.44s-.33.66,0,.77,1-.44,1.1-.77a3.58,3.58,0,0,0,.87-2.3c0-1,.11-1.65-.33-2A3.09,3.09,0,0,1,154.23,116.16Z" transform="translate(-41.45 -10.01)"/><path class="cls-27" d="M150.06,120.88a13.3,13.3,0,0,1,.55-2,1.44,1.44,0,0,1,.88-.66l-10.42,5.49h0c.33-.22.77-.33.88-.22.32.11.32.22.32.66v.77s0,.54.33.65,6.92-3.62,6.92-3.62A3,3,0,0,0,150.06,120.88Z" transform="translate(-41.45 -10.01)"/><path class="cls-27" d="M141.07,123.62s-1.21.88-1.76,1.21a2.19,2.19,0,0,1-2,0l-.11.76.11,1.1a2,2,0,0,0,1.1.11c.54-.11,1.09-.11,1.2-.44s.22-1.75.66-2.19c.22-.22.55-.33.77-.55Z" transform="translate(-41.45 -10.01)"/><path class="cls-24" d="M138,126.47c-.55-.33-.44-.33-.44-.77,0-.22.22-1,.33-1.64-.22.11-.44-.11-.44-.11s-5.16-2.85-5.49-3.18-.33-.33-.33-.33,0,.11-.11.11a4.69,4.69,0,0,0-.33,1.86,4.53,4.53,0,0,0,.22,1,2.42,2.42,0,0,0,.66.55l4.72,2.52a10.55,10.55,0,0,0,1.65.33h.43A1.22,1.22,0,0,1,138,126.47Z" transform="translate(-41.45 -10.01)"/><path class="cls-14" d="M135.47,117.91l2.42-3.29a13.55,13.55,0,0,0,2.3,1.32l2.85,1.32-1.75,3.84s-2.2-1.1-3.07-1.65Z" transform="translate(-41.45 -10.01)"/><path class="cls-15" d="M145.13,116.27c0,.11.77,2.74.77,2.74l-.44.22c-.44.22-2.86,1.54-2.86,1.54s-.43.11-.54,0a.53.53,0,0,1,0-.44l1.42-3.18Z" transform="translate(-41.45 -10.01)"/><polygon class="cls-15" points="104 106.15 104.99 108.78 107.95 107.25 106.85 104.83 104 106.15"/><path class="cls-15" d="M148.53,114.62l1.21,2.31,1.53-.88a19.61,19.61,0,0,0-2.08-1.65A2.22,2.22,0,0,0,148.53,114.62Z" transform="translate(-41.45 -10.01)"/><path class="cls-7" d="M145.79,120.55a.48.48,0,0,1-.55.11c-.11,0-.22-.22-.22-.33s.22-.22.33-.33.22-.11.33,0,.22.22.22.33S145.79,120.55,145.79,120.55Z" transform="translate(-41.45 -10.01)"/><path class="cls-16" d="M145.35,120.66a2.4,2.4,0,0,0,.55-.33.38.38,0,0,0,.11-.22c-.11-.11-.66.22-.66.22s-.33.11-.22.22S145.35,120.66,145.35,120.66Z" transform="translate(-41.45 -10.01)"/><path class="cls-7" d="M149.41,118.79a.48.48,0,0,1-.55.11c-.11,0-.22-.22-.22-.33s.22-.22.33-.33.22-.11.33,0,.22.22.22.33A.38.38,0,0,1,149.41,118.79Z" transform="translate(-41.45 -10.01)"/><path class="cls-16" d="M148.86,118.79a2.4,2.4,0,0,0,.55-.33.38.38,0,0,0,.11-.22c-.11-.11-.66.22-.66.22s-.33.11-.22.22S148.86,118.79,148.86,118.79Z" transform="translate(-41.45 -10.01)"/><path class="cls-8" d="M142.82,125.05v-.44a12.31,12.31,0,0,0-.55-3,1.61,1.61,0,0,0-.76-.65h0l1.75-4.06h0l2-1,1.2,3.4V123h0Zm-1.2-4.06a1.39,1.39,0,0,1,.87.65,19.34,19.34,0,0,1,.55,3v.33l3.51-1.76v-3.62l-1.2-3.4-1.87.88Z" transform="translate(-41.45 -10.01)"/><path class="cls-8" d="M146.44,123.18h0v-3.73l-1.2-3.4,3.18-1.54,1.75,3.4h0a3.13,3.13,0,0,0-.54,1.1c-.11.55-.33,2.53-.33,2.53h0Zm-1.2-7,1.2,3.4v3.62l2.75-1.54c0-.21.22-2,.33-2.52a2.47,2.47,0,0,1,.54-1.1l-.11-.22-1.64-3.07Z" transform="translate(-41.45 -10.01)"/><path class="cls-28" d="M135.36,118.13s0,.44.22.55,4.17,2.31,4.17,2.31a.53.53,0,0,0,.44,0h.22Z" transform="translate(-41.45 -10.01)"/><path class="cls-25" d="M137.89,114.18a9.86,9.86,0,0,0,2.3,1.43c1.32.66,3.07,1.43,3.07,1.43l5.93-2.86-4.72-2.63a2.82,2.82,0,0,0-.55-.22,4.46,4.46,0,0,0-1.1.33C142.71,111.66,137.89,114.18,137.89,114.18Z" transform="translate(-41.45 -10.01)"/><path class="cls-15" d="M142.06,126.25c-.33.77-.88,1.21-1.43,1a1.59,1.59,0,0,1-.22-2.08c.33-.77,1-1,1.43-.66A1.89,1.89,0,0,1,142.06,126.25Z" transform="translate(-41.45 -10.01)"/><path class="cls-18" d="M141.73,126.14c-.22.44-.55.77-.88.55a1,1,0,0,1-.11-1.32.73.73,0,0,1,.88-.43A2.15,2.15,0,0,1,141.73,126.14Z" transform="translate(-41.45 -10.01)"/><path class="cls-15" d="M152.26,120.77c-.33.77-.88,1.2-1.43,1a1.59,1.59,0,0,1-.22-2.08c.33-.77,1-1,1.43-.66S152.48,120,152.26,120.77Z" transform="translate(-41.45 -10.01)"/><path class="cls-18" d="M151.93,120.55c-.22.44-.55.77-.88.55a1,1,0,0,1-.11-1.32.73.73,0,0,1,.88-.44A2.29,2.29,0,0,1,151.93,120.55Z" transform="translate(-41.45 -10.01)"/><path class="cls-19" d="M137.89,114.73,135.47,118l.88.44a4.9,4.9,0,0,0,3.29-.44,3.37,3.37,0,0,0,1.65-1.42h0a12.9,12.9,0,0,0-1.21-.55C138.76,115.28,137.89,114.73,137.89,114.73Z" transform="translate(-41.45 -10.01)"/><path class="cls-7" d="M142.27,120.66a.64.64,0,0,0,.66.44c.55,0,.55-.22.55-.22s0-.44-.33-.55a3,3,0,0,0-.88-.33l-.1.22.21.11Z" transform="translate(-41.45 -10.01)"/><path class="cls-7" d="M135.47,117.59a.32.32,0,0,1-.33-.33v-.44s.22-.22.33-.11l.44.22Z" transform="translate(-41.45 -10.01)"/><path class="cls-29" d="M131.19,121.64s0,.33.77.77c.33.22,4.5,2.53,4.83,2.75a1.59,1.59,0,0,0,.77.21.86.86,0,0,0,.88-.54,3.39,3.39,0,0,0,.1-.88l-.32.44-.44.11-.77-.33-.66-.44L133.28,122l-.55-.33-.88-.21-.33-.66-.22.66Z" transform="translate(-41.45 -10.01)"/><path class="cls-5" d="M138.54,124.06l-.43.22a1.1,1.1,0,0,1-.44.11l-1-.33-.44-.22-.33.77,1.1.55a3.89,3.89,0,0,0,.66.11c.22,0,.55,0,.66-.22S138.54,124.06,138.54,124.06Z" transform="translate(-41.45 -10.01)"/><path class="cls-5" d="M131.52,120.77l.44.44c.22.11.77.43.77.43l-.22.77a2.32,2.32,0,0,1-.88-.66,1.63,1.63,0,0,1-.22-.32,1.1,1.1,0,0,1,.11-.44Z" transform="translate(-41.45 -10.01)"/><path class="cls-23" d="M138.11,124.28c-.11,0-.22.11-.33.11l-.22.88h.11c.22,0,.55,0,.66-.22a2.73,2.73,0,0,0,.11-.88A.85.85,0,0,0,138.11,124.28Z" transform="translate(-41.45 -10.01)"/><path class="cls-25" d="M153.79,116.71s-.11.44.11.55a.48.48,0,0,0,.55.11.11.11,0,0,0,.11-.11,1.33,1.33,0,0,0,.11-.55,3.89,3.89,0,0,0-.11-.66h-.33Z" transform="translate(-41.45 -10.01)"/><path class="cls-21" d="M154.45,115.06s.11.22-.22.33-.44,0-.44,0v1.1a1.1,1.1,0,0,0,.11.44.39.39,0,0,0,.55-.11v-1.76Z" transform="translate(-41.45 -10.01)"/><path class="cls-30" d="M154.56,116.49c-.11.11-.22.22-.33.22a.53.53,0,0,1-.44,0,1.1,1.1,0,0,0,.11.44.39.39,0,0,0,.55-.11Z" transform="translate(-41.45 -10.01)"/><path class="cls-28" d="M131.52,123.51s.55.44.66.22a1.1,1.1,0,0,0,.11-.44l3.62,2a1.22,1.22,0,0,0,0,.65.86.86,0,0,0,.44.44,1.36,1.36,0,0,1,.33.22L131.85,124l-.33-.33C131.63,123.62,131.52,123.51,131.52,123.51Z" transform="translate(-41.45 -10.01)"/><polygon class="cls-5" points="91.5 111.75 91.17 112.4 94.24 114.16 94.57 113.5 91.5 111.75"/><path class="cls-31" d="M154.34,116.71a.48.48,0,0,1-.11.33.41.41,0,0,0,.33-.22v-.44c-.11.11-.22.11-.22.22Z" transform="translate(-41.45 -10.01)"/><polygon class="cls-5" points="98.41 103.08 103.78 105.93 104.44 104.06 99.39 101.54 98.41 103.08"/><polygon class="cls-32" points="104.44 104.06 105.1 103.74 105.87 104.94 103.78 105.93 104.44 104.06"/><polygon class="cls-33" points="99.39 101.54 100.16 101.21 105.1 103.74 104.44 104.06 99.39 101.54"/><path class="cls-33" d="M140.85,111.66l-1.1,1.54.66.33a2.32,2.32,0,0,0,1.43-.55c.11-.11.22-.33.43-.55Z" transform="translate(-41.45 -10.01)"/><polygon class="cls-32" points="100.82 102.31 101.7 101.98 100.16 101.21 99.39 101.65 100.82 102.31"/><polygon class="cls-34" points="102.47 113.72 102.03 113.94 102.03 113.5 102.47 113.28 102.47 113.72"/><polygon class="cls-34" points="102.8 113.06 102.47 113.28 102.47 112.84 102.91 112.62 102.8 113.06"/><polygon class="cls-34" points="103.23 113.17 102.8 113.39 102.8 112.95 103.23 112.73 103.23 113.17"/><polygon class="cls-34" points="103.67 112.62 103.23 112.84 103.23 112.29 103.67 112.07 103.67 112.62"/><polygon class="cls-34" points="104 112.84 103.56 113.06 103.67 112.62 104 112.4 104 112.84"/></g><g id="_33" data-name="33"><polygon class="cls-35" points="178.17 119.64 163.36 110.87 178.17 102.53 178.17 119.64"/><polygon class="cls-36" points="132.64 58.31 178.17 84.54 178.06 100.01 132.42 73.56 132.64 58.31"/><polygon class="cls-36" points="98.52 92.77 75.81 71.92 75.92 64.57 98.52 77.52 98.52 92.77"/></g><g id="_32" data-name="32"><polygon class="cls-37" points="75.81 71.92 59.35 81.14 78.99 104.06 98.74 92.77 75.81 71.92"/><polygon class="cls-6" points="59.79 77.84 75.81 68.63 75.81 71.92 62.64 79.49 59.79 77.84"/></g><g id="_31" data-name="31"><polygon class="cls-38" points="91.39 81.68 91.39 75.76 90.84 76.09 90.84 82.01 91.39 81.68"/><polygon class="cls-39" points="91.39 75.76 87.55 73.56 86.89 73.89 90.84 76.09 91.39 75.76"/><polygon class="cls-40" points="90.84 82.01 86.89 79.71 86.89 73.89 90.84 76.09 90.84 82.01"/><polygon class="cls-41" points="90.07 77.41 90.07 80.15 87.55 78.61 87.55 75.87 90.07 77.41"/><polygon class="cls-42" points="88.42 76.42 88.42 78.28 87.55 78.61 87.55 75.87 88.42 76.42"/><polygon class="cls-43" points="90.07 80.15 87.55 78.61 88.42 78.28 90.07 79.38 90.07 80.15"/><polygon class="cls-44" points="88.75 76.53 88.75 78.17 90.07 78.94 90.07 77.41 88.75 76.53"/><g class="cls-45"><polygon class="cls-46" points="90.07 77.41 90.07 78.94 90.07 80.15 87.55 78.61 87.55 75.87 88.75 76.53 90.07 77.41"/></g><polygon class="cls-47" points="90.07 77.41 90.07 78.94 90.07 80.15 87.55 78.61 87.55 75.87 88.75 76.53 90.07 77.41"/><polygon class="cls-48" points="90.95 76.09 90.95 75.43 91.5 75.1 91.5 75.76 90.95 76.09"/><polygon class="cls-49" points="86.89 73.89 86.89 73.13 90.95 75.43 90.95 76.09 86.89 73.89"/><polygon class="cls-50" points="86.89 73.13 87.55 72.91 91.39 75.1 90.84 75.43 86.89 73.13"/></g><g id="_30" data-name="30"><polygon class="cls-51" points="101.37 110.21 118.48 100.44 134.61 109.33 117.61 119.53 101.37 110.21"/><polygon class="cls-51" points="75.92 64.57 123.42 37.36 191.66 76.86 178.17 84.54 132.64 58.31 98.74 77.84 75.92 64.57"/><polygon class="cls-51" points="55.84 75.54 48.49 79.82 71.75 93.09 79.1 88.81 55.84 75.54"/><polygon class="cls-51" points="76.14 87.17 95.66 76.09 98.74 77.84 79.1 88.81 76.14 87.17"/><polygon class="cls-52" points="78.77 62.92 98.74 74.44 132.64 54.59 178.17 81.14 188.48 74.99 123.42 37.36 78.77 62.92"/><path class="cls-53" d="M130.1,78.64s1.75-8.45,14.59-9.66c8.56-.76,21.83-.33,24.46-8.44s-4.27-13.28-4.27-13.28L120.22,72.93Z" transform="translate(-41.45 -10.01)"/><path class="cls-53" d="M184.84,58.89s-2.63,9.22,7.79,15.36,19.31,1.75,27,5.49l7.68,3.73Z" transform="translate(-41.45 -10.01)"/><polygon class="cls-52" points="104.66 112.07 117.61 119.53 130.88 111.53 118.26 104.06 104.66 112.07"/><path class="cls-53" d="M150.94,119.23a12.54,12.54,0,0,0,8.45,3.07c6.36,0,8.56-3.4,8.56-3.4l-8.23-4.83Z" transform="translate(-41.45 -10.01)"/><polygon class="cls-53" points="130.88 111.53 130 112.07 124.63 109 126.49 109 130.88 111.53"/><polygon class="cls-53" points="104.66 112.07 110.58 108.67 110.36 109.99 105.76 112.73 104.66 112.07"/><path class="cls-54" d="M207.55,84.12s9-1.2,12.07,1.43,2.85,3.84,2.85,3.84l-2.85,1.76Z" transform="translate(-41.45 -10.01)"/></g><g id="_29" data-name="29"><path class="cls-55" d="M135.47,70.74c-.11,0-2.19,1.32-2.19,1.32l2.19,1.2,2.2-1.31-2.2-1.21Z" transform="translate(-41.45 -10.01)"/><polygon class="cls-56" points="94.02 63.91 94.02 63.25 91.82 62.05 91.82 62.7 94.02 63.91"/><polygon class="cls-56" points="96.21 61.94 96.21 62.59 94.02 63.91 94.02 63.25 96.21 61.94"/><polygon class="cls-57" points="94.02 56.34 94.02 62.7 94.68 62.27 94.68 55.9 94.02 56.34"/><polygon class="cls-58" points="93.25 56.01 93.25 62.38 94.02 62.7 94.02 56.34 93.25 56.01"/><polygon class="cls-58" points="90.95 54.59 93.25 60.29 93.25 59.08 91.5 54.59 90.95 54.59"/><polygon class="cls-59" points="93.25 57.88 92.04 54.59 91.5 54.59 93.25 59.08 93.25 57.88"/><polygon class="cls-55" points="91.82 53.27 91.93 55.02 94.02 57.11 94.68 51.95 91.82 53.27"/><path class="cls-56" d="M137.89,63.94c-.22.33-2.31,3.18-2.31,3.18l.66-5.05Z" transform="translate(-41.45 -10.01)"/><polygon class="cls-60" points="94.02 57.11 96.43 53.93 99.28 52.5 98.84 55.02 94.02 57.11"/><polygon class="cls-61" points="91.82 53.27 92.37 51.51 94.68 51.95 91.82 53.27"/><polygon class="cls-60" points="90.4 49.98 91.82 53.27 92.37 51.51 90.4 49.98"/><polygon class="cls-55" points="91.93 48.55 90.4 49.98 92.37 51.51 94.02 49.43 91.93 48.55"/><polygon class="cls-56" points="94.68 51.95 94.02 49.43 92.37 51.51 94.68 51.95"/><path class="cls-61" d="M129.66,59.66l.44.88,1.42,2.52s.44,0,.44.22a.77.77,0,0,1-.22.44l.55.87,1,.11-.11-1.53-1.43-3.29Z" transform="translate(-41.45 -10.01)"/><polygon class="cls-61" points="88.2 51.84 89.08 51.29 88.64 50.53 88.2 51.84"/><polygon class="cls-56" points="90.07 53.05 89.08 51.29 88.2 51.84 90.07 53.05"/><polygon class="cls-60" points="88.2 49.65 88.97 48.55 89.74 48.55 89.41 47.89 91.71 44.71 91.93 44.71 92.15 44.93 91.93 48.55 90.4 49.98 88.2 49.65"/><path class="cls-61" d="M136.13,55.38l1.65,8.67,3-1.54-.22-.66a10.38,10.38,0,0,0-1,.33l.77-1-2.08-5.37-.44.22.22-.77-.22-.77Z" transform="translate(-41.45 -10.01)"/><polygon class="cls-60" points="94.02 49.43 94.68 45.37 96.43 53.93 94.68 51.95 94.02 49.43"/><polygon class="cls-55" points="96.76 46.14 99.28 47.67 97.75 48.55 96.76 46.14"/><path class="cls-56" d="M140,60.76l.33-1.1a.86.86,0,0,0,.44-.33c.11-.22,0-.33,0-.33l-.44.11.33-1.32-1.65.88Z" transform="translate(-41.45 -10.01)"/><polygon class="cls-56" points="92.15 44.93 94.68 45.37 94.02 49.43 91.93 48.55 92.15 44.93"/><path class="cls-55" d="M133.39,54.72s.77-.22.77-.55v-.66l.33.44.32-.22,1.54.88.88-.33.44.33s-1.43.77-1.54.77-2.63-.44-2.63-.44Z" transform="translate(-41.45 -10.01)"/><polygon class="cls-56" points="94.02 41.75 93.36 43.83 94.9 44.71 94.02 41.75"/><polygon class="cls-61" points="95.77 44.27 95.88 43.94 94.02 41.75 94.9 44.71 95.77 44.27"/><polygon class="cls-56" points="89.63 47.56 89.41 46.14 90.07 46.8 89.63 47.56"/><polygon class="cls-55" points="90.07 45.7 90.62 46.14 90.07 46.8 89.41 46.14 90.07 45.7"/><polygon class="cls-55" points="95.88 48.44 96.87 47.89 96.32 49.87 95.88 48.44"/><polygon class="cls-56" points="98.08 47.67 96.87 47.89 96.32 49.87 97.75 48.88 98.08 47.67"/><path class="cls-55" d="M138.44,65.14l.76,1.21.77-.22s.11,0,.22.22.33-.55.33-.55l.33-.22-1-1.09Z" transform="translate(-41.45 -10.01)"/><path class="cls-62" d="M137.45,66.24l1.86.11-.77-1.21Z" transform="translate(-41.45 -10.01)"/><polygon class="cls-63" points="94.02 63.91 95.88 63.8 98.3 62.38 95.77 60.95 94.9 61.28 96.21 61.94 96.21 62.59 94.02 63.91"/></g><g id="_28" data-name="28"><polygon class="cls-63" points="138.34 52.17 140.21 52.06 142.62 50.64 140.1 49.21 139.33 49.54 140.54 50.2 140.54 50.85 138.34 52.17"/><path class="cls-55" d="M179.8,59c-.11,0-2.2,1.32-2.2,1.32l2.2,1.2L182,60.21,179.8,59Z" transform="translate(-41.45 -10.01)"/><polygon class="cls-56" points="138.34 52.17 138.34 51.51 136.15 50.31 136.15 50.97 138.34 52.17"/><polygon class="cls-56" points="140.54 50.2 140.54 50.85 138.34 52.17 138.34 51.51 140.54 50.2"/><polygon class="cls-57" points="138.34 44.6 138.34 50.97 139.11 50.53 139.11 44.16 138.34 44.6"/><polygon class="cls-58" points="137.68 44.27 137.68 50.53 138.34 50.97 138.34 44.6 137.68 44.27"/><polygon class="cls-58" points="135.27 42.85 137.68 48.44 137.68 47.23 135.82 42.85 135.27 42.85"/><polygon class="cls-59" points="137.68 46.03 136.37 42.85 135.82 42.85 137.68 47.23 137.68 46.03"/><polygon class="cls-55" points="136.15 41.53 136.37 43.28 138.34 45.37 139.11 40.21 136.15 41.53"/><path class="cls-56" d="M182.21,52.2c-.22.33-2.3,3.18-2.3,3.18l.65-5.16Z" transform="translate(-41.45 -10.01)"/><polygon class="cls-60" points="138.34 45.37 140.75 42.19 143.61 40.65 143.28 43.28 138.34 45.37"/><polygon class="cls-61" points="136.15 41.53 136.7 39.77 139.11 40.21 136.15 41.53"/><polygon class="cls-60" points="134.72 38.24 136.15 41.53 136.7 39.77 134.72 38.24"/><polygon class="cls-55" points="136.26 36.81 134.72 38.24 136.7 39.77 138.34 37.69 136.26 36.81"/><polygon class="cls-56" points="139.11 40.21 138.34 37.69 136.7 39.77 139.11 40.21"/><path class="cls-61" d="M174,47.92l.44.88,1.43,2.52s.44,0,.44.22a.77.77,0,0,1-.22.44l.54.88,1,.11-.11-1.54-1.42-3.29Z" transform="translate(-41.45 -10.01)"/><polygon class="cls-61" points="132.53 40.1 133.51 39.55 133.07 38.79 132.53 40.1"/><polygon class="cls-56" points="134.5 41.2 133.51 39.55 132.53 40.1 134.5 41.2"/><polygon class="cls-60" points="132.53 37.91 133.29 36.81 134.17 36.81 133.73 36.15 136.04 32.97 136.26 32.97 136.48 33.08 136.26 36.81 134.72 38.24 132.53 37.91"/><path class="cls-61" d="M180.56,43.53l1.65,8.67,3-1.54L185,50a10.1,10.1,0,0,0-1,.33l.76-1L182.65,44l-.44.22.22-.77-.22-.77Z" transform="translate(-41.45 -10.01)"/><polygon class="cls-60" points="138.34 37.69 139.11 33.52 140.75 42.19 139.11 40.21 138.34 37.69"/><polygon class="cls-55" points="141.08 34.4 143.61 35.93 142.07 36.81 141.08 34.4"/><path class="cls-56" d="M184.4,49l.33-1.1a.86.86,0,0,0,.44-.33c.11-.22,0-.33,0-.33l-.44.11.33-1.32-1.64.88Z" transform="translate(-41.45 -10.01)"/><polygon class="cls-56" points="136.48 33.08 139.11 33.52 138.34 37.69 136.26 36.81 136.48 33.08"/><path class="cls-55" d="M177.71,43s.77-.22.77-.55v-.66l.33.44.33-.22,1.53.88.88-.33.44.33s-1.43.77-1.54.77-2.63-.44-2.63-.44Z" transform="translate(-41.45 -10.01)"/><polygon class="cls-56" points="138.34 29.9 137.68 32.09 139.22 32.97 138.34 29.9"/><polygon class="cls-61" points="140.1 32.53 140.21 32.2 138.34 29.9 139.22 32.97 140.1 32.53"/><polygon class="cls-56" points="133.95 35.72 133.73 34.4 134.5 35.06 133.95 35.72"/><polygon class="cls-55" points="134.5 33.96 134.94 34.4 134.5 35.06 133.73 34.4 134.5 33.96"/><polygon class="cls-55" points="140.21 36.7 141.19 36.15 140.65 38.13 140.21 36.7"/><polygon class="cls-56" points="142.4 35.93 141.19 36.15 140.65 38.13 142.07 37.14 142.4 35.93"/><path class="cls-55" d="M182.87,53.4l.77,1.21.76-.22s.11,0,.22.22.33-.55.33-.55l.33-.22-1-1.09Z" transform="translate(-41.45 -10.01)"/><path class="cls-62" d="M181.77,54.5l1.87.11-.77-1.21Z" transform="translate(-41.45 -10.01)"/></g><g id="_27" data-name="27"><g id="_2" data-name="2"><polygon class="cls-64" points="170.49 72.03 173.12 71.48 172.02 69.07 170.93 70.05 170.49 72.03"/><polygon class="cls-65" points="168.84 70.93 170.05 69.07 170.93 70.05 170.49 72.03 168.84 70.93"/><polygon class="cls-66" points="170.05 69.07 171.37 68.63 172.02 69.07 170.93 70.05 170.05 69.07"/><polygon class="cls-65" points="168.4 72.25 169.17 71.04 170.16 71.48 169.94 72.91 168.4 72.25"/><polygon class="cls-64" points="171.69 72.14 171.25 71.04 170.16 71.48 169.94 72.91 171.69 72.14"/><polygon class="cls-66" points="169.17 71.04 170.27 70.6 171.25 71.04 170.16 71.48 169.17 71.04"/><polygon class="cls-67" points="169.94 72.91 171.03 71.92 171.25 71.15 171.69 72.14 169.94 72.91"/></g><polygon class="cls-63" points="169.94 72.91 172.57 73.24 175.64 71.48 172.46 70.16 173.12 71.48 171.47 71.81 171.69 72.14 169.94 72.91"/></g><g id="_26" data-name="26"><g id="_2-2" data-name="2"><polygon class="cls-64" points="103.56 65.45 106.2 64.9 105.1 62.48 104 63.36 103.56 65.45"/><polygon class="cls-65" points="101.92 64.35 103.12 62.48 104 63.36 103.56 65.45 101.92 64.35"/><polygon class="cls-66" points="103.12 62.48 104.44 62.05 105.1 62.48 104 63.36 103.12 62.48"/><polygon class="cls-65" points="101.48 65.67 102.25 64.46 103.23 64.9 103.01 66.32 101.48 65.67"/><polygon class="cls-64" points="104.77 65.56 104.33 64.35 103.23 64.9 103.01 66.32 104.77 65.56"/><polygon class="cls-66" points="102.25 64.46 103.34 63.91 104.33 64.35 103.23 64.9 102.25 64.46"/><polygon class="cls-67" points="103.01 66.32 104.11 65.34 104.33 64.57 104.77 65.56 103.01 66.32"/></g><polygon class="cls-63" points="103.01 66.32 105.65 66.65 108.72 64.9 105.54 63.58 106.2 64.9 104.55 65.23 104.77 65.56 103.01 66.32"/></g><g id="_25" data-name="25"><polygon class="cls-63" points="111.46 59.3 113.22 59.19 115.63 57.77 113.11 56.23 112.34 56.67 113.66 57.33 113.66 57.88 111.46 59.3"/><path class="cls-55" d="M152.81,66.13c-.11,0-2.2,1.32-2.2,1.32l2.2,1.2L155,67.34l-2.19-1.21Z" transform="translate(-41.45 -10.01)"/><polygon class="cls-56" points="111.46 59.19 111.46 58.53 109.27 57.33 109.27 58.1 111.46 59.19"/><polygon class="cls-56" points="113.66 57.33 113.66 57.88 111.46 59.19 111.46 58.53 113.66 57.33"/><polygon class="cls-57" points="111.46 51.62 111.46 57.99 112.12 57.66 112.12 51.18 111.46 51.62"/><polygon class="cls-58" points="110.69 51.29 110.69 57.66 111.46 57.99 111.46 51.62 110.69 51.29"/><path class="cls-58" d="M152.92,65.36s1.75-1,1.86-1.09.22-1.21.22-1.21l.88-.55-.44,2.3-2.52,1.54Z" transform="translate(-41.45 -10.01)"/><polygon class="cls-58" points="110.69 55.02 110.36 54.59 110.15 53.82 109.6 53.82 109.82 55.02 110.69 55.9 110.69 55.02"/><path class="cls-57" d="M155.88,62.51l.66-.22a16.29,16.29,0,0,1-.33,2.09,6,6,0,0,1-.77.43Z" transform="translate(-41.45 -10.01)"/><polygon class="cls-59" points="110.15 53.82 110.69 53.82 110.69 55.02 110.36 54.59 110.15 53.82"/><polygon class="cls-60" points="109.27 51.95 109.27 53.6 109.6 53.82 109.93 53.82 110.47 49.87 109.27 50.31 108.39 49.1 108.39 51.84 108.72 52.72 109.27 51.95"/><path class="cls-56" d="M148.64,58.67a4.16,4.16,0,0,0,.11,1.54,5.5,5.5,0,0,0,.66,1.53l.44.22V59.22Z" transform="translate(-41.45 -10.01)"/><polygon class="cls-55" points="111.24 46.36 108.39 49.1 109.27 50.31 111.24 46.36"/><polygon class="cls-56" points="110.69 49.98 112.01 50.31 112.23 51.62 112.45 50.85 112.78 50.31 113.33 50.31 113.88 53.05 111.24 54.37 110.69 53.82 109.93 53.82 110.47 49.87 110.69 49.98"/><path class="cls-61" d="M148.64,58.67s1-.11,1-.22.22-.66.11-.77.21-.22.21-.22l.66.77-.76.66Z" transform="translate(-41.45 -10.01)"/><path class="cls-61" d="M156.87,58.45l-2.09,1.76.44,2.74s.55-.11.55-.33.88-2.52.88-2.63A7.43,7.43,0,0,0,156.87,58.45Z" transform="translate(-41.45 -10.01)"/><path class="cls-55" d="M151.93,59.88l4.94-1.43-2.09,1.76h-.55l-.33.55s-.11.87-.22.76a8.5,8.5,0,0,1-.32-1.31l-1.54-.11v-.22Z" transform="translate(-41.45 -10.01)"/><path class="cls-56" d="M155.88,62.51s1,.22,1.1.55a1.93,1.93,0,0,1,.11.55L159,59.22l-2.19-.77-.22,1.87Z" transform="translate(-41.45 -10.01)"/><polygon class="cls-61" points="111.24 46.36 110.47 49.87 109.27 50.31 111.24 46.36"/><path class="cls-56" d="M153.68,55.16s0,.88-.1.88a7.58,7.58,0,0,0-.88.33l-.77,3.51,4.94-1.43-.11-.55-.88-.11.44-1-.44-1.1-.55.11.22-.33-1,.44Z" transform="translate(-41.45 -10.01)"/><path class="cls-60" d="M157.2,56.7l.76-.11-.22.65s2,1.76,1.87,1.76-2.74-.55-2.74-.55l-.11-.55-.88-.11.44-1-.44-1.1Z" transform="translate(-41.45 -10.01)"/><path class="cls-68" d="M159.61,59.55l-2.74-1.1,2.74.55Z" transform="translate(-41.45 -10.01)"/><path class="cls-68" d="M157.2,63.61s.87-.77,1.09-.66.44-.22.44-.22l-.11-1.1H159l.77-2.08-.55-.33Z" transform="translate(-41.45 -10.01)"/><path class="cls-61" d="M151.93,57.13l-.22-.87,1-2.09L152.59,56l.11.44Z" transform="translate(-41.45 -10.01)"/><polygon class="cls-55" points="112.23 45.15 111.24 44.05 111.13 46.03 111.24 46.36 112.23 46.03 112.23 45.15"/><polygon class="cls-55" points="112.56 45.37 113.55 44.38 113.88 45.26 113.99 45.37 113.99 45.48 113.11 45.92 112.56 45.37"/></g><g id="_24" data-name="24"><polygon class="cls-69" points="98.52 92.77 98.52 77.84 132.64 58.31 132.42 73.56 98.52 92.77"/><polygon class="cls-69" points="71.75 108.23 71.75 93.09 78.99 88.81 78.99 104.06 71.75 108.23"/><polygon class="cls-70" points="98.52 90.57 105.54 86.62 105.54 88.92 98.52 92.77 98.52 90.57"/><polygon class="cls-70" points="125.61 75.1 132.42 71.15 132.42 73.56 125.72 77.3 125.61 75.1"/><polygon class="cls-69" points="78.99 88.81 98.52 77.84 98.52 80.48 78.99 91.67 78.99 88.81"/><polygon class="cls-70" points="71.75 105.49 78.99 101.43 78.99 104.06 71.75 108.12 71.75 105.49"/></g><g id="_23" data-name="23"><path class="cls-7" d="M174.75,102.56a57.39,57.39,0,0,0,5.27,2.85,3.37,3.37,0,0,0,1.86.11c1-.22,13-6.7,13-6.7s1.53-.76.65-1.64c-.43-.44-5-3.29-5-3.29l-16,6.58v1.32l.11.33Z" transform="translate(-41.45 -10.01)"/><path class="cls-8" d="M181.66,102.12a6.75,6.75,0,0,1,1.76.33c.33.21.44.65.65.76s.44.11,1.1-.22a8.66,8.66,0,0,0,1.76-1.75l-2.31-2-3.07,1.43Z" transform="translate(-41.45 -10.01)"/><path class="cls-8" d="M191.32,97.07s1.09-.33,1.42,0,.44.77.66.77.66-.11.66-.11a7.32,7.32,0,0,0,.66-1.32c0-.22-.33-1.53-.33-1.53l-1.87-.22-1.09.76Z" transform="translate(-41.45 -10.01)"/><path class="cls-7" d="M184.07,103.21c-.21.55-.21,1.43-.54,1.54s-.77-.44-1-.55a1.59,1.59,0,0,1-.22-2.08c.44-.77,1.1-1,1.54-.66.21.22.76.44.76.77S184.18,103,184.07,103.21Z" transform="translate(-41.45 -10.01)"/><path class="cls-7" d="M192.85,98.28c-.22.44-.22,1.31-.55,1.42s-.76-.44-.87-.55a1.59,1.59,0,0,1-.22-2.08c.44-.66,1-1,1.42-.66.22.22.77.44.77.77S193,98.06,192.85,98.28Z" transform="translate(-41.45 -10.01)"/><path class="cls-15" d="M184.73,103.76c-.33.77-1,1.32-1.53,1a1.61,1.61,0,0,1-.22-2.09c.33-.76,1-1,1.42-.65S185,103,184.73,103.76Z" transform="translate(-41.45 -10.01)"/><path class="cls-18" d="M184.4,103.54c-.22.44-.54.77-.87.55a1,1,0,0,1-.11-1.32c.22-.43.65-.65.87-.43A2.14,2.14,0,0,1,184.4,103.54Z" transform="translate(-41.45 -10.01)"/><path class="cls-15" d="M193.62,98.82c-.33.77-.88,1.21-1.43,1a1.62,1.62,0,0,1-.22-2.08c.33-.77,1-1,1.43-.66A1.81,1.81,0,0,1,193.62,98.82Z" transform="translate(-41.45 -10.01)"/><path class="cls-18" d="M193.29,98.72c-.22.43-.55.76-.88.54A1,1,0,0,1,192.3,98a.73.73,0,0,1,.88-.44A1.46,1.46,0,0,1,193.29,98.72Z" transform="translate(-41.45 -10.01)"/><path class="cls-71" d="M178.81,104a6.73,6.73,0,0,0,1.43.66,1.34,1.34,0,0,0,1,0c.44-.22,1.21-.66,1.21-.66l.22-1.21a2.3,2.3,0,0,1,.77-1.31,5.06,5.06,0,0,1,1-.55s.77-.11.66.88a2.69,2.69,0,0,1-.11.77s0,.43.33.32,5.38-3.07,5.38-3.07a3.09,3.09,0,0,0,.55-1.09c.11-.55.33-1.76.33-1.76a1.83,1.83,0,0,1,.87-.88,1.75,1.75,0,0,1,1-.11,1,1,0,0,1,.22.88.94.94,0,0,0,.33,1,1,1,0,0,0,.77-.55,15.37,15.37,0,0,0,.87-3.4c-.11-.66-.11-.88-.76-1.21s-4.72-2.3-4.72-2.3a1.84,1.84,0,0,0-1.65,0l-.76.33-1.65-1a2.43,2.43,0,0,0-1.32,0c-.87.55-4.93,2.85-4.93,2.85l-1.87,3.18-3.07,2a2.63,2.63,0,0,0-1.21,1.86v.88a1.1,1.1,0,0,0,.55,1.1C174.75,101.9,178.81,104,178.81,104Z" transform="translate(-41.45 -10.01)"/><path class="cls-72" d="M195.7,93.89c-.11-.66-.11-.88-.65-1.21l-2.2.88L191.43,92l-1.32.11L185,94.88l-1.53,3.94-3.73,2.75a4.51,4.51,0,0,1,0,1.31c0,1.43,0,1.21.22,1.43s1.2.22,1.2.22c.44-.22,1-.55,1-.55l.22-1.21a2.3,2.3,0,0,1,.77-1.31,5.06,5.06,0,0,1,1-.55s.77-.11.66.88a2.69,2.69,0,0,1-.11.77s0,.43.33.32,5.38-3.07,5.38-3.07a3.09,3.09,0,0,0,.55-1.09c.11-.55.33-1.76.33-1.76a1.89,1.89,0,0,1,.87-.88,1.75,1.75,0,0,1,1-.11,1,1,0,0,1,.22.88.94.94,0,0,0,.33,1,1,1,0,0,0,.77-.55A6.5,6.5,0,0,0,195.7,93.89Z" transform="translate(-41.45 -10.01)"/><path class="cls-71" d="M195.05,93.12a.51.51,0,0,0,.43,0l-.43-.44c-.55-.33-4.72-2.3-4.72-2.3a1.84,1.84,0,0,0-1.65,0l-.77.33-1.86-1a2.47,2.47,0,0,0-1.65.22c-.87.55-4.6,2.63-4.6,2.63l-1.87,3.18-3.07,2a2.89,2.89,0,0,0-.88.88.38.38,0,0,0,.11.32A32.08,32.08,0,0,0,177.6,101c.77.33,2,1.43,2.09.88S183.75,99,183.75,99v-.11l1.42-3.51,5.49-3.07,2.19,1.76Z" transform="translate(-41.45 -10.01)"/><polygon class="cls-14" points="136.7 85.85 138.45 82.89 143.39 85.41 142.07 88.6 136.7 85.85"/><path class="cls-15" d="M184.18,98.39l1.21-3L187.91,94a4.44,4.44,0,0,1,.33,1.31,7.93,7.93,0,0,1,.22,1.21l-3.73,2.2s-.33.1-.44,0C184,98.72,184.18,98.39,184.18,98.39Z" transform="translate(-41.45 -10.01)"/><path class="cls-15" d="M188.35,93.78a12.44,12.44,0,0,1,.44,1.42l.22,1.1,3.51-1.86s.22-.11,0-.33-1.75-1.65-1.75-1.65Z" transform="translate(-41.45 -10.01)"/><path class="cls-72" d="M179.69,104.42a.73.73,0,0,1-.33-.77v-.77l-5.27-2.74v1c0,.44.55.77.55.77,1.21.66,4.17,2.19,4.17,2.19A3.72,3.72,0,0,0,179.69,104.42Z" transform="translate(-41.45 -10.01)"/><path class="cls-73" d="M177.6,96l-2.74,1.76a2.89,2.89,0,0,0-.88.88.38.38,0,0,0,.11.32A32.08,32.08,0,0,0,177.6,101c.77.33,2,1.43,2.09.88s3.07-2.31,3.84-2.75C181.77,98.17,179.14,96.74,177.6,96Z" transform="translate(-41.45 -10.01)"/><path class="cls-74" d="M174.2,98.72s1.65.87,2.63,1.31,3.19,1.65,3.19,1.65l-.66.44-5.27-2.75Z" transform="translate(-41.45 -10.01)"/><path class="cls-73" d="M185.28,95.2l5.38-3s0-.22-.33-.33a18,18,0,0,0-2.52-1.2h-.11l-1.65-1a1.88,1.88,0,0,0-1.65.22c-.76.44-3.84,2.19-4.49,2.52C181.55,93.34,184.07,94.66,185.28,95.2Z" transform="translate(-41.45 -10.01)"/><path class="cls-71" d="M178.15,95.86l-.11-.22h0l-3.07,2a2.89,2.89,0,0,0-.88.88c0,.11,0,.22.11.22l.11-.11a5.5,5.5,0,0,1,.55-.77C175.08,97.73,178,96,178,96Z" transform="translate(-41.45 -10.01)"/><path class="cls-19" d="M179.91,92.9l-1.76,3,1.65.88a5.34,5.34,0,0,0,2.3-.33c.88-.55,1.21-1.21.77-2Z" transform="translate(-41.45 -10.01)"/><path class="cls-7" d="M185.06,97.62l.88.44s.22.11.22.22a.83.83,0,0,1-.22.44.16.16,0,0,1-.22,0,4.78,4.78,0,0,1-.77-.44l-.22.22a.34.34,0,0,0-.11.22.16.16,0,0,1-.22,0l-.11-.11Z" transform="translate(-41.45 -10.01)"/><path class="cls-19" d="M185.94,98.06l-.88-.44-.22.22a6.34,6.34,0,0,1,1,.55v.11c0,.11-.11.11-.22.11h.33a.83.83,0,0,0,.22-.44Z" transform="translate(-41.45 -10.01)"/><path class="cls-7" d="M178,95.53l-.33-.22-.22-.11a.38.38,0,0,1-.11-.22,2.58,2.58,0,0,1,.11-.43.15.15,0,0,1,.22,0,3.43,3.43,0,0,1,.66.43Z" transform="translate(-41.45 -10.01)"/><path class="cls-19" d="M178.26,95.09l.22-.21a6.74,6.74,0,0,1-.66-.44h-.22s-.22.33-.11.44a.38.38,0,0,0,.11.21h0v-.21c-.11-.22.11-.44.11-.44a.34.34,0,0,0,.11.22A.84.84,0,0,0,178.26,95.09Z" transform="translate(-41.45 -10.01)"/><path class="cls-75" d="M183.75,101.24a1.07,1.07,0,0,1,.54-.22s.77-.11.66.88a2.57,2.57,0,0,1-.11.76s0,.44.33.33,5.38-3.07,5.38-3.07a3.08,3.08,0,0,0,.55-1.1c.11-.54.33-1.75.33-1.75a1.57,1.57,0,0,1,.54-.66Z" transform="translate(-41.45 -10.01)"/><path class="cls-75" d="M180.13,104.31c.21.33,1.2.22,1.2.22.44-.22,1-.55,1-.55l.22-1.21a2.46,2.46,0,0,1,.66-1.2,11,11,0,0,1-2.31,1.42.91.91,0,0,1-1-.33C179.91,104.09,179.91,104.09,180.13,104.31Z" transform="translate(-41.45 -10.01)"/><path class="cls-75" d="M192.74,96.08a1.5,1.5,0,0,1,.77,0,1,1,0,0,1,.22.88.94.94,0,0,0,.33,1,1,1,0,0,0,.77-.55,15.37,15.37,0,0,0,.87-3.4,1.84,1.84,0,0,0-.32-1l-.22.11c.32.44,0,.33-.22,1.32A4.55,4.55,0,0,1,192.74,96.08Z" transform="translate(-41.45 -10.01)"/><path class="cls-73" d="M194.83,92.57c-.55-.33-4.39-2.19-4.39-2.19a1.84,1.84,0,0,0-1.65,0,.38.38,0,0,0-.22.11c1.32.66,4,2.08,5.49,2.85l.77-.33s.11,0,.22-.22Z" transform="translate(-41.45 -10.01)"/><path class="cls-76" d="M195.38,93s-.44,0-.44.33.22,1.21.44,1.32a.31.31,0,0,0,.21.11,2.78,2.78,0,0,0,.11-1.21C195.48,93,195.38,93,195.38,93Z" transform="translate(-41.45 -10.01)"/><path class="cls-31" d="M195.7,93.89c-.11.11-.11.11-.11.22h-.54c.11.22.22.55.33.55a.31.31,0,0,0,.21.11A4.16,4.16,0,0,0,195.7,93.89Z" transform="translate(-41.45 -10.01)"/><path class="cls-8" d="M185.5,102.23h0l-.11-2.09a.58.58,0,0,0-.44-.55,3.52,3.52,0,0,0-.77-.11h0l-.54-.66h0l1.53-3.73h0l2.74-1.53h0s.22.66.44,1.53.55,3,.55,3.08l-.11,2.08h0Zm-1-2.75a1.2,1.2,0,0,1,.55.11.62.62,0,0,1,.44.66l.11,2,3.29-1.87.11-2.08s-.33-2.2-.55-3a9.37,9.37,0,0,1-.33-1.53l-2.74,1.53-1.53,3.62.54.55Z" transform="translate(-41.45 -10.01)"/><path class="cls-8" d="M188.79,100.36h0l.11-2.08s-.33-2.2-.55-3-.44-1.53-.44-1.53h0l2.53-1.43h0l2.3,2.09h0l-.11,1.31h0a9.87,9.87,0,0,0-1.09.77,6.34,6.34,0,0,0-.55,1.87,5.09,5.09,0,0,1-.33.87h0ZM188,93.67c0,.11.22.77.44,1.53s.55,3,.55,3.08l-.11,2.08,1.87-1.1a1.73,1.73,0,0,0,.33-.87,3.71,3.71,0,0,1,.55-1.87,3.87,3.87,0,0,1,1.09-.77l.11-1.31-2.19-2Z" transform="translate(-41.45 -10.01)"/><path class="cls-74" d="M174.75,101.9s-.55-.77-.22-.55c.55.33,4.17,2.19,4.17,2.19s-.22.33.33.66S174.75,101.9,174.75,101.9Z" transform="translate(-41.45 -10.01)"/><path class="cls-74" d="M187.7,97.62l.65-.33s.33.22.33.33-.11.22-.33.33a.67.67,0,0,1-.65,0C187.59,97.84,187.7,97.62,187.7,97.62Z" transform="translate(-41.45 -10.01)"/><path class="cls-73" d="M187.81,97.62s-.11.11,0,.11h.43c.22-.11.22-.22.22-.22l.11.11a.24.24,0,0,1-.22.22c-.11.11-.44.11-.44.11s-.21.11-.32,0,0-.44.11-.44Z" transform="translate(-41.45 -10.01)"/><path class="cls-74" d="M191.65,95.42l.65-.33s.33.22.33.33a.59.59,0,0,1-.33.44c-.22.11-.65.11-.65-.11S191.65,95.42,191.65,95.42Z" transform="translate(-41.45 -10.01)"/><path class="cls-73" d="M191.75,95.53s-.1.11,0,.11h.44c.22-.11.22-.22.22-.22l.11.11a.24.24,0,0,1-.22.22c-.11.11-.44.11-.44.11s-.21.11-.32,0,0-.44.11-.44Z" transform="translate(-41.45 -10.01)"/><path class="cls-77" d="M177.16,100.14c0,.11-.11.33-.22.33s-.22-.11-.22-.33.11-.33.22-.33S177.16,99.92,177.16,100.14Z" transform="translate(-41.45 -10.01)"/><path class="cls-78" d="M176.94,100a.24.24,0,0,1-.22.22c-.11,0-.22-.11-.11-.22a.24.24,0,0,1,.22-.22C176.94,99.81,176.94,99.92,176.94,100Z" transform="translate(-41.45 -10.01)"/><path class="cls-78" d="M173.65,99.26a1.89,1.89,0,0,1,.33-.76l.33-.44a3.58,3.58,0,0,1,.77,1.09,1,1,0,0,1-.11.77Z" transform="translate(-41.45 -10.01)"/><path class="cls-78" d="M178.26,101.57a1.54,1.54,0,0,1,.44-.55,3.63,3.63,0,0,1,1.54,0c.21,0,.54.11.54.33v.55a.39.39,0,0,1-.22.33,1.26,1.26,0,0,1-.65.22Z" transform="translate(-41.45 -10.01)"/><path class="cls-23" d="M180.13,101.46a3,3,0,0,0-.44.77l.33.22a1.29,1.29,0,0,0,.65-.22.39.39,0,0,0,.22-.33v-.55c0-.11-.22-.22-.33-.33A1.34,1.34,0,0,0,180.13,101.46Z" transform="translate(-41.45 -10.01)"/><path class="cls-23" d="M174.42,98.17v-.11c-.11.11-.11.22-.33.33a3,3,0,0,0-.33.87l.22.11h0C173.87,99.37,174.09,98.72,174.42,98.17Z" transform="translate(-41.45 -10.01)"/><path class="cls-14" d="M181.66,92.68,184.4,94a.94.94,0,0,0,.77,0l.77-.44a.33.33,0,0,0,0-.44l-2.74-1.43a.7.7,0,0,0-.66,0l-.77.44C181.55,92.35,181.55,92.57,181.66,92.68Z" transform="translate(-41.45 -10.01)"/><path class="cls-19" d="M183.2,91.8a.7.7,0,0,0-.66,0l-.77.44a.33.33,0,0,0,0,.44l.66.33a4,4,0,0,0,1.64.11,2.76,2.76,0,0,0,.77-.44Z" transform="translate(-41.45 -10.01)"/><path class="cls-23" d="M185.83,98.5l.11-.33a.24.24,0,0,1,.11.33c0,.11,0,.22-.22.32s-.33,0-.33,0Z" transform="translate(-41.45 -10.01)"/><path class="cls-23" d="M177.6,95.2v-.43a1.58,1.58,0,0,0,.22-.33l-.22-.11s-.11,0-.22.22-.11.33,0,.43S177.6,95.2,177.6,95.2Z" transform="translate(-41.45 -10.01)"/></g><g id="_22" data-name="22"><polygon class="cls-79" points="158.97 88.81 158.42 88.6 142.07 98.03 141.52 97.7 140.87 98.03 142.73 99.13 143.28 98.8 142.62 98.36 158.97 88.81"/><polygon class="cls-80" points="142.62 98.36 155.57 105.71 171.69 96.28 158.97 88.81 142.62 98.36"/><path class="cls-79" d="M200,107.6a3.1,3.1,0,0,1-2.63-.22c-.77-.55-.77-1.31.11-1.75a2.69,2.69,0,0,1,1.86-.22l.55-.33a4.87,4.87,0,0,0-3.07.22c-1.21.66-1.21,1.64-.11,2.41a4.59,4.59,0,0,0,2.74.55Z" transform="translate(-41.45 -10.01)"/><path class="cls-79" d="M201.3,108.81l-.88-.22,1.21-1.54L199.87,106l.44-.22,1.21.87.55-.32-1.21-.88,1.1-.66a1.28,1.28,0,0,0,1.1,0c.32-.22.32-.44.1-.66a1,1,0,0,0-1.09,0c-.11.11-.22.11-.22.22L199.11,106l1.86,1.2-1.32,1.54,1.43.44Z" transform="translate(-41.45 -10.01)"/><polygon class="cls-79" points="172.24 96.61 171.69 96.28 155.57 105.71 155.02 105.27 154.36 105.71 156.12 106.7 156.77 106.37 156.12 105.93 172.24 96.61"/></g><g id="_21" data-name="21"><polygon class="cls-63" points="125.83 51.62 128.03 51.51 134.39 48 132.64 47.13 132.64 47.67 125.83 51.62"/><polygon class="cls-81" points="119.91 47.02 126.27 50.64 132.64 47.02 126.27 43.17 119.91 47.02"/><polygon class="cls-82" points="119.8 47.78 119.91 47.02 126.27 50.64 126.16 51.4 119.8 47.78"/><polygon class="cls-83" points="132.64 47.02 132.64 47.67 126.16 51.4 126.27 50.64 132.64 47.02"/><polygon class="cls-83" points="121.56 46.91 126.27 49.54 130.88 46.91 126.27 44.27 121.56 46.91"/><polygon class="cls-84" points="126.27 44.27 126.27 49.54 121.56 46.91 126.27 44.27"/><polygon class="cls-81" points="122.32 47.34 126.93 44.6 127.59 45.04 122.98 47.67 122.32 47.34"/><polygon class="cls-81" points="124.85 48.88 129.56 46.14 130.22 46.47 125.61 49.21 124.85 48.88"/><polygon class="cls-81" points="123.53 48 128.25 45.26 128.91 45.7 124.19 48.44 123.53 48"/><polygon class="cls-63" points="119.8 47.78 119.91 48.22 125.83 51.62 126.16 51.4 119.8 47.78"/></g><g id="_20" data-name="20"><polygon class="cls-81" points="174.55 96.06 174.66 93.31 172.24 91.78 172.13 94.63 174.55 96.06"/><polygon class="cls-82" points="174.88 95.95 174.55 96.06 174.66 93.31 174.88 93.09 174.88 95.95"/><polygon class="cls-82" points="172.24 91.78 172.46 91.67 174.88 93.09 174.66 93.31 172.24 91.78"/><polygon class="cls-85" points="174.22 95.51 174.33 93.42 172.57 92.44 172.46 94.41 174.22 95.51"/><polygon class="cls-86" points="172.46 94.41 174.33 93.42 174.22 95.51 172.46 94.41"/><polygon class="cls-81" points="174.22 95.18 172.46 94.19 172.46 93.86 174.22 94.96 174.22 95.18"/><polygon class="cls-81" points="174.33 94.08 172.46 92.98 172.46 92.66 174.33 93.75 174.33 94.08"/><polygon class="cls-81" points="174.33 94.63 172.46 93.64 172.46 93.31 174.33 94.41 174.33 94.63"/></g><g id="_19" data-name="19"><path class="cls-87" d="M139.31,96.85a.54.54,0,0,0-.33-.11h0l-1.2.77v.88l1,5.15,1.21-.66h0v-4.6A1.54,1.54,0,0,0,139.31,96.85Z" transform="translate(-41.45 -10.01)"/><path class="cls-88" d="M138.76,103.65V99a1.53,1.53,0,0,0-.65-1.42c-.77-.44-.66.66-.66.66v4.17Z" transform="translate(-41.45 -10.01)"/><path class="cls-89" d="M139.53,99.15l.33.22a1.52,1.52,0,0,1,.22.77c0,.55-.22.66-.22.66l-1.32.77-.32-1.65Z" transform="translate(-41.45 -10.01)"/><path class="cls-90" d="M138.22,101.35V99.92l.32.22a1.52,1.52,0,0,1,.22.77c0,.66-.22.66-.22.66Z" transform="translate(-41.45 -10.01)"/><polygon class="cls-91" points="84.03 98.58 96.98 91.23 96.98 90.35 84.03 97.7 84.03 98.58"/><polygon class="cls-92" points="84.03 97.7 83.81 97.48 83.81 98.36 84.03 98.58 84.03 97.7"/><polygon class="cls-93" points="84.03 97.7 83.81 97.48 96.76 90.13 96.98 90.35 84.03 97.7"/><polygon class="cls-94" points="84.03 97.7 84.03 97.92 83.81 97.7 83.81 97.48 84.03 97.7"/><path class="cls-95" d="M138,100.58h0a.84.84,0,0,1-.22.55l-.55.33h0a.6.6,0,0,1,.33-.55Z" transform="translate(-41.45 -10.01)"/><path class="cls-96" d="M136.79,101.24h0a.84.84,0,0,1-.22.55l-.55.33h0a.6.6,0,0,1,.33-.55Z" transform="translate(-41.45 -10.01)"/><path class="cls-97" d="M135.58,102h0a.84.84,0,0,1-.22.55l-.55.32h0a.59.59,0,0,1,.33-.54Z" transform="translate(-41.45 -10.01)"/><path class="cls-98" d="M134.38,102.66h0a.84.84,0,0,1-.22.55l-.55.33h0a.6.6,0,0,1,.33-.55Z" transform="translate(-41.45 -10.01)"/><path class="cls-99" d="M133.17,103.32h0a.84.84,0,0,1-.22.55l-.55.33h0a.6.6,0,0,1,.33-.55Z" transform="translate(-41.45 -10.01)"/><path class="cls-100" d="M132,104.09h0a.84.84,0,0,1-.22.55l-.55.33h0a.6.6,0,0,1,.33-.55Z" transform="translate(-41.45 -10.01)"/><path class="cls-101" d="M130.76,104.75h0a.84.84,0,0,1-.22.55l-.55.33h0a.6.6,0,0,1,.33-.55Z" transform="translate(-41.45 -10.01)"/><path class="cls-102" d="M129.44,105.41h0a.84.84,0,0,1-.22.55l-.55.33h0a.6.6,0,0,1,.33-.55Z" transform="translate(-41.45 -10.01)"/><path class="cls-103" d="M128.23,106.07h0a.81.81,0,0,1-.22.54l-.55.33h0a.6.6,0,0,1,.33-.55Z" transform="translate(-41.45 -10.01)"/><path class="cls-104" d="M127,106.72h0a.84.84,0,0,1-.22.55l-.55.33h0a.6.6,0,0,1,.33-.55Z" transform="translate(-41.45 -10.01)"/></g><g id="_18" data-name="18"><polygon class="cls-105" points="105.54 88.92 125.72 77.3 125.83 65.89 105.54 77.63 105.54 88.92"/><polygon class="cls-35" points="125.72 77.3 111.13 74.33 125.83 65.78 125.72 77.3"/><polygon class="cls-79" points="105.54 77.52 105.54 79.6 125.83 67.86 125.83 65.78 105.54 77.52"/><polygon class="cls-106" points="105.54 79.6 105.54 78.83 125.83 67.09 125.83 67.75 105.54 79.6"/><polygon class="cls-107" points="114.97 72.91 114.97 73.67 116.84 72.47 116.84 71.81 114.97 72.91"/></g><g id="_17" data-name="17"><polygon class="cls-108" points="102.03 85.74 102.03 81.03 103.01 81.57 103.01 86.29 102.03 85.74"/><polygon class="cls-109" points="103.01 81.57 105.21 80.48 105.21 85.08 103.01 86.29 103.01 81.57"/><polygon class="cls-110" points="105.21 80.48 104.22 79.82 102.03 81.03 103.01 81.57 105.21 80.48"/><polygon class="cls-50" points="103.23 81.9 103.23 84.97 104.88 84.1 104.88 81.03 103.23 81.9"/><polygon class="cls-49" points="104 81.57 103.56 82.56 103.56 84.65 104.11 84.32 104.88 82.12 104.88 81.03 104 81.57"/><polygon class="cls-111" points="103.23 85.3 103.23 85.74 104.88 84.87 104.88 84.54 103.23 85.3"/></g><g id="_16" data-name="16"><polygon class="cls-38" points="142.18 79.6 142.18 71.15 140.32 72.14 140.43 80.48 142.18 79.6"/><polygon class="cls-39" points="142.07 71.15 138.23 68.96 136.48 69.94 140.32 72.14 142.07 71.15"/><polygon class="cls-40" points="140.43 80.48 136.48 78.17 136.48 69.94 140.32 72.14 140.43 80.48"/><polygon class="cls-41" points="139.66 73.46 139.66 76.31 137.03 74.66 137.03 71.92 139.66 73.46"/><polygon class="cls-42" points="137.9 72.47 137.9 74.33 137.03 74.66 137.03 71.92 137.9 72.47"/><polygon class="cls-43" points="139.66 76.31 137.03 74.66 137.9 74.33 139.66 75.43 139.66 76.31"/><polygon class="cls-44" points="138.23 72.69 138.23 74.22 139.66 74.99 139.66 73.46 138.23 72.69"/><g class="cls-45"><polygon class="cls-112" points="139.66 73.46 139.66 74.99 139.66 76.31 137.03 74.66 137.03 71.92 138.23 72.69 139.66 73.46"/></g><polygon class="cls-113" points="139.66 73.46 139.66 74.99 139.66 76.31 137.03 74.66 137.03 71.92 138.23 72.69 139.66 73.46"/><polygon class="cls-79" points="136.48 77.52 140.43 79.71 140.43 80.48 136.48 78.17 136.48 77.52"/><polygon class="cls-114" points="142.18 79.6 142.18 78.83 140.43 79.71 140.43 80.48 142.18 79.6"/><polygon class="cls-48" points="140.32 72.14 140.32 71.04 142.18 70.05 142.18 71.26 140.32 72.14"/><polygon class="cls-115" points="136.48 70.05 136.48 68.85 140.32 71.04 140.43 72.14 136.48 70.05"/><polygon class="cls-50" points="142.07 70.05 138.12 67.97 136.48 68.85 140.32 71.04 142.07 70.05"/></g><g id="_15" data-name="15"><polygon class="cls-116" points="136.15 123.7 136.15 115.36 134.5 116.35 134.39 124.69 136.15 123.7"/><polygon class="cls-48" points="134.5 116.35 134.39 115.15 136.15 114.27 136.15 115.36 134.5 116.35"/><polygon class="cls-50" points="136.15 114.27 134.61 113.28 134.61 114.27 134.5 115.15 136.15 114.27"/></g><g id="_14" data-name="14"><path class="cls-117" d="M182.87,142.6l-1.54-1.1a.11.11,0,0,1-.11-.11h0c-.33-.22-.88-.22-1.86.33l-2.42,1.43-.87.55v3.07l2.41-1,2.63-1.32V144a1.7,1.7,0,0,0,.88-.22A8.4,8.4,0,0,0,182.87,142.6Z" transform="translate(-41.45 -10.01)"/><path class="cls-118" d="M176.07,148.52l5.7-3.18v3.51l1.87-1.09V144s0-2.31-2.42-.88l-2.41,1.42-2.74,1.54Z" transform="translate(-41.45 -10.01)"/><polygon class="cls-119" points="140.21 138.84 138.01 137.53 138.01 136.54 140.21 135.33 140.21 138.84"/></g><g id="_13" data-name="13"><polygon class="cls-120" points="48.27 117.01 53.1 125.68 117.61 163.42 117.61 156.84 48.27 117.01"/><polygon class="cls-121" points="117.61 156.84 191.44 114.6 187.38 123.48 117.61 163.42 117.61 156.84"/><polygon class="cls-122" points="117.61 158.37 117.61 156.84 191.44 114.6 190.45 116.68 117.61 158.37"/><polygon class="cls-123" points="117.61 158.37 49.37 118.88 48.27 117.01 117.61 156.84 117.61 158.37"/></g><g id="_12" data-name="12"><g id="_12-2" data-name="12"><polygon class="cls-105" points="114.42 70.27 114.53 71.48 116.51 70.38 116.51 69.18 114.42 70.27"/><polygon class="cls-124" points="114.97 70.49 114.97 71.7 117.17 70.49 117.17 69.4 114.97 70.49"/><polygon class="cls-125" points="114.97 70.49 114.97 70.38 114.97 71.48 114.97 71.7 114.97 70.49"/><polygon class="cls-126" points="117.17 69.4 116.95 69.18 114.75 70.38 114.97 70.49 117.17 69.4"/></g><polygon class="cls-126" points="114.97 71.7 114.97 70.49 114.75 70.38 114.75 71.59 114.97 71.7"/></g><g id="_11" data-name="11"><path class="cls-127" d="M113.31,80l.44,1.32a.8.8,0,0,0,1.1,0l.44-1.21Z" transform="translate(-41.45 -10.01)"/><path class="cls-128" d="M115.83,78.42h0L115,74.91h0a.67.67,0,0,0-1.32,0h0l-.88,3.51h0c0,.11-.11.22-.11.44a1.65,1.65,0,0,0,3.29,0C115.94,78.64,115.94,78.53,115.83,78.42Z" transform="translate(-41.45 -10.01)"/></g><g id="_10" data-name="10"><path class="cls-129" d="M209.53,109l.44,1.31a.84.84,0,0,0,.55.22.83.83,0,0,0,.54-.22l.44-1.2Z" transform="translate(-41.45 -10.01)"/><path class="cls-130" d="M212.05,107.38h0l-.88-3.51h0a.67.67,0,0,0-1.31,0h0l-.88,3.51h0c0,.11-.11.22-.11.44a1.65,1.65,0,1,0,3.29,0C212.05,107.71,212.05,107.6,212.05,107.38Z" transform="translate(-41.45 -10.01)"/></g><g id="_9" data-name="9"><path class="cls-117" d="M142.82,141.94l-5.92-3.51v-4.06l-2.2-1.32v4.28a5.05,5.05,0,0,0,2.75,4.28,26.29,26.29,0,0,1,2.85,1.76l2.52,1.53Z" transform="translate(-41.45 -10.01)"/><polygon class="cls-119" points="95.44 128.42 97.75 127.1 97.64 125.46 95.44 124.25 95.44 128.42"/><polygon class="cls-118" points="101.37 132.04 101.37 129.19 97.75 127.1 95.44 128.42 101.37 132.04"/></g><g id="_8" data-name="8"><path class="cls-131" d="M111.45,93.67l-1.1-.66-4.5.11h0a1.7,1.7,0,0,0-.66-.33l-1.2.77s.22.55,1.09.44a1.64,1.64,0,0,0,.88-.33Z" transform="translate(-41.45 -10.01)"/><path class="cls-132" d="M105.74,93.45c0,.33-.44.66-1,.66s-1-.33-1-.66.44-.66,1-.66S105.74,93.12,105.74,93.45Z" transform="translate(-41.45 -10.01)"/><path class="cls-133" d="M104.75,93.67h0c-.22,0-.44-.11-.44-.33l.11-17.66a.29.29,0,0,1,.33-.33h0a.29.29,0,0,1,.33.33l.11,17.66A.49.49,0,0,1,104.75,93.67Z" transform="translate(-41.45 -10.01)"/><polygon class="cls-134" points="66.7 61.06 66.7 65.12 63.63 66.87 63.63 62.92 66.7 61.06"/><polygon class="cls-135" points="63.63 66.87 60.45 65.34 60.45 61.39 63.63 62.92 63.63 66.87"/><polygon class="cls-44" points="60.45 61.39 63.52 59.63 66.7 61.06 63.63 62.92 60.45 61.39"/><path class="cls-48" d="M106.84,72.93c.11-.11.22-.11.33-.22h.22c.11,0,.11.11.22.11s.11.11.11.33a.4.4,0,0,1-.11.33c0,.11-.11.22-.22.33s-.11.22-.22.33-.22.22-.33.22l-.44.22v.77l-.11.11-.44.22h-.11v-2.2l.11-.11Zm-.44,1.21.33-.22c.11,0,.11-.11.22-.22s.11-.11.11-.22,0-.11-.11-.11-.11,0-.22.11l-.33.22Z" transform="translate(-41.45 -10.01)"/><polygon class="cls-48" points="61.76 66.54 61.76 62.59 62.31 62.16 62.31 66.22 61.76 66.54"/><polygon class="cls-48" points="61.76 62.59 65.16 60.4 65.16 59.74 61.76 61.94 61.76 62.59"/><polygon class="cls-48" points="65.16 60.4 65.16 59.85 65.82 59.52 65.82 60.62 65.16 60.4"/><polygon class="cls-49" points="61.76 66.54 61.76 61.94 61.1 61.61 61.1 66.32 61.76 66.54"/><polygon class="cls-50" points="61.1 61.61 65.16 59.19 65.82 59.52 61.76 61.94 61.1 61.61"/><path class="cls-136" d="M104.31,80.94s0,.22.33.22a.41.41,0,0,0,.33-.22v.66a.36.36,0,0,1-.66,0Z" transform="translate(-41.45 -10.01)"/></g><g id="_7" data-name="7"><polygon class="cls-69" points="71.75 127.98 78.99 123.59 78.99 114.82 71.75 110.65 71.75 127.98"/><polygon class="cls-69" points="71.75 125.35 78.99 120.96 78.99 123.7 71.75 127.98 71.75 125.35"/></g><g id="_6" data-name="6"><path class="cls-69" d="M219.62,94.55l-.11,15.25-43.44,24.9V119.34l-17,10.09V167L233,124.5l.11-37.74Zm0,35.21-43.55,24.8V137.44l43.55-24.9Z" transform="translate(-41.45 -10.01)"/><polygon class="cls-137" points="134.61 124.69 117.5 134.56 117.5 137.2 134.61 127.32 134.61 124.69"/><polygon class="cls-137" points="134.61 144.55 117.5 154.31 117.5 157.06 134.61 147.18 134.61 144.55"/><polygon class="cls-137" points="178.17 102.53 177.95 99.9 191.55 92 191.44 94.74 178.17 102.53"/><polygon class="cls-137" points="178.17 119.75 178.17 122.17 191.44 114.6 191.55 112.07 178.17 119.75"/><polygon class="cls-138" points="177.95 98.25 191.44 90.46 191.44 92 177.95 99.9 177.95 98.25"/><polygon class="cls-138" points="178.17 118.22 191.55 110.54 191.55 112.07 178.17 119.75 178.17 118.22"/><polygon class="cls-138" points="117.61 132.92 134.5 123.05 134.5 124.69 117.5 134.56 117.61 132.92"/><polygon class="cls-138" points="117.5 152.67 134.61 142.9 134.61 144.55 117.5 154.31 117.5 152.67"/></g><g id="_5" data-name="5"><path class="cls-36" d="M142.82,120.22v15.14l-29.62-17V103.1L89.94,89.83,89.72,127,159,167.07l.11-37.53Zm0,34.78L113.2,138V120.66l29.62,17.22Z" transform="translate(-41.45 -10.01)"/><path class="cls-139" d="M111.34,109.14l-1.21-.66V105.3c-.11,0-.22.11-.33.11l-.55.11-.66-1.1,1.54-.33,1.1.66v4.39Z" transform="translate(-41.45 -10.01)"/><path class="cls-139" d="M111.34,126.58l-3.19-1.86V124l1.1-.44c.33-.11.55-.22.55-.33L110,123c0-.11.11-.11.11-.22a.4.4,0,0,0-.11-.33l-.33-.33a.93.93,0,0,0-.88,0l-.66-1.2a1.43,1.43,0,0,1,1.1,0,3.62,3.62,0,0,1,.66.33,5.34,5.34,0,0,1,.77.54,2,2,0,0,1,.55.77,2,2,0,0,1,.22.77c0,.22,0,.33-.11.44s-.11.22-.22.33-.22.22-.33.22a2.41,2.41,0,0,1-1,.33h0l1.65,1v1Z" transform="translate(-41.45 -10.01)"/><polygon class="cls-140" points="101.37 127.87 101.37 125.35 117.5 134.56 117.5 137.2 101.37 127.87"/><polygon class="cls-140" points="101.37 144.99 101.37 147.62 117.5 156.95 117.5 154.31 101.37 144.99"/><polygon class="cls-140" points="71.75 108.23 48.38 94.85 48.38 97.15 71.75 110.65 71.75 108.23"/><polygon class="cls-140" points="71.75 127.98 48.27 114.16 48.27 117.01 71.75 130.5 71.75 127.98"/><polygon class="cls-81" points="115.08 140.93 115.08 138.07 112.67 136.65 112.56 139.5 115.08 140.93"/><polygon class="cls-82" points="115.3 140.82 115.08 140.93 115.08 138.07 115.3 137.97 115.3 140.82"/><polygon class="cls-82" points="112.67 136.65 112.89 136.54 115.3 137.97 115.08 138.07 112.67 136.65"/><polygon class="cls-85" points="114.64 140.38 114.75 138.29 113 137.31 112.89 139.28 114.64 140.38"/><polygon class="cls-86" points="112.89 139.28 114.75 138.29 114.64 140.38 112.89 139.28"/><polygon class="cls-81" points="114.64 140.05 112.89 139.06 112.89 138.73 114.75 139.83 114.64 140.05"/><polygon class="cls-81" points="114.75 138.95 112.89 137.86 112.89 137.53 114.75 138.62 114.75 138.95"/><polygon class="cls-81" points="114.75 139.5 112.89 138.51 112.89 138.19 114.75 139.28 114.75 139.5"/><polygon class="cls-141" points="117.61 132.92 101.37 123.7 101.37 125.35 117.5 134.56 117.61 132.92"/><polygon class="cls-141" points="117.5 152.67 101.37 143.34 101.37 144.99 117.5 154.31 117.5 152.67"/><polygon class="cls-141" points="71.75 106.48 48.49 93.31 48.38 94.85 71.75 108.23 71.75 106.48"/><polygon class="cls-141" points="71.75 126.34 48.27 112.62 48.27 114.16 71.75 127.98 71.75 126.34"/></g><g id="_4" data-name="4"><polygon class="cls-81" points="67.14 87.72 70.65 89.69 74.05 87.72 70.65 85.63 67.14 87.72"/><polygon class="cls-83" points="67.14 88.16 67.14 87.72 70.65 89.69 70.54 90.13 67.14 88.16"/><polygon class="cls-84" points="74.05 87.72 74.05 88.16 70.54 90.13 70.65 89.69 74.05 87.72"/><polygon class="cls-83" points="68.13 87.72 70.65 89.14 73.17 87.72 70.65 86.29 68.13 87.72"/><polygon class="cls-84" points="70.65 86.29 70.65 89.14 68.13 87.72 70.65 86.29"/><polygon class="cls-81" points="68.45 87.94 70.98 86.4 71.31 86.62 68.78 88.16 68.45 87.94"/><polygon class="cls-81" points="69.88 88.7 72.41 87.28 72.73 87.5 70.21 88.92 69.88 88.7"/><polygon class="cls-81" points="69.11 88.27 71.64 86.84 72.08 87.06 69.44 88.49 69.11 88.27"/><polygon class="cls-131" points="70.54 90.13 71.53 90.13 74.82 88.27 74.05 87.83 74.05 88.16 70.54 90.13"/></g><g id="_3" data-name="3"><polygon class="cls-63" points="157.65 66.22 159.52 66.11 161.93 64.68 159.41 63.25 158.53 63.58 159.84 64.24 159.84 64.9 157.65 66.22"/><path class="cls-55" d="M199.11,73c-.11,0-2.2,1.32-2.2,1.32l2.2,1.21,2.19-1.32L199.11,73Z" transform="translate(-41.45 -10.01)"/><polygon class="cls-56" points="157.65 66.22 157.65 65.56 155.46 64.35 155.46 65.01 157.65 66.22"/><polygon class="cls-56" points="159.84 64.24 159.84 64.9 157.65 66.22 157.65 65.56 159.84 64.24"/><polygon class="cls-57" points="157.65 58.65 157.65 65.01 158.42 64.57 158.42 58.21 157.65 58.65"/><polygon class="cls-58" points="156.88 58.31 156.88 64.57 157.65 65.01 157.65 58.65 156.88 58.31"/><polygon class="cls-58" points="154.58 56.89 156.88 62.48 156.88 61.28 155.13 56.89 154.58 56.89"/><polygon class="cls-59" points="156.88 60.07 155.68 56.89 155.13 56.89 156.88 61.28 156.88 60.07"/><polygon class="cls-55" points="155.46 55.57 155.57 57.33 157.65 59.41 158.42 54.26 155.46 55.57"/><path class="cls-56" d="M201.52,66.24c-.22.33-2.3,3.18-2.3,3.18l.65-5Z" transform="translate(-41.45 -10.01)"/><polygon class="cls-60" points="157.65 59.41 160.06 56.23 162.92 54.7 162.59 57.33 157.65 59.41"/><polygon class="cls-61" points="155.46 55.57 156 53.82 158.42 54.26 155.46 55.57"/><polygon class="cls-60" points="154.03 52.28 155.46 55.57 156 53.82 154.03 52.28"/><polygon class="cls-55" points="155.57 50.85 154.03 52.28 156 53.82 157.65 51.73 155.57 50.85"/><polygon class="cls-56" points="158.42 54.26 157.65 51.73 156 53.82 158.42 54.26"/><path class="cls-61" d="M193.29,62l.44.88,1.43,2.52s.43,0,.43.22a.78.78,0,0,1-.21.44l.54.88,1,.11-.11-1.54-1.42-3.29Z" transform="translate(-41.45 -10.01)"/><polygon class="cls-61" points="151.84 54.15 152.82 53.6 152.38 52.83 151.84 54.15"/><polygon class="cls-56" points="153.7 55.24 152.82 53.6 151.84 54.15 153.7 55.24"/><polygon class="cls-60" points="151.84 51.95 152.6 50.85 153.37 50.85 153.04 50.2 155.35 47.02 155.57 47.02 155.79 47.13 155.57 50.85 154.03 52.28 151.84 51.95"/><path class="cls-61" d="M199.87,57.57l1.65,8.67,3-1.54-.22-.65a10.38,10.38,0,0,0-1,.33l.77-1L202,58l-.44.22.22-.77-.22-.76Z" transform="translate(-41.45 -10.01)"/><polygon class="cls-60" points="157.65 51.73 158.42 47.56 160.06 56.23 158.42 54.26 157.65 51.73"/><polygon class="cls-55" points="160.39 48.44 162.92 49.98 161.38 50.85 160.39 48.44"/><path class="cls-56" d="M203.6,63.06l.33-1.1a.86.86,0,0,0,.44-.33c.11-.22,0-.33,0-.33l-.44.11.33-1.31-1.64.87Z" transform="translate(-41.45 -10.01)"/><polygon class="cls-56" points="155.79 47.13 158.42 47.56 157.65 51.73 155.57 50.85 155.79 47.13"/><path class="cls-55" d="M197,57s.77-.21.77-.54v-.66l.33.44.33-.22,1.53.88.88-.33.44.33s-1.43.76-1.54.76-2.63-.44-2.63-.44Z" transform="translate(-41.45 -10.01)"/><polygon class="cls-56" points="157.65 43.94 156.99 46.14 158.53 47.02 157.65 43.94"/><polygon class="cls-61" points="159.41 46.58 159.52 46.25 157.65 43.94 158.53 47.02 159.41 46.58"/><polygon class="cls-56" points="153.26 49.76 153.04 48.44 153.7 49.1 153.26 49.76"/><polygon class="cls-55" points="153.7 48 154.25 48.44 153.7 49.1 153.04 48.44 153.7 48"/><polygon class="cls-55" points="159.52 50.74 160.5 50.2 159.96 52.17 159.52 50.74"/><polygon class="cls-56" points="161.71 49.98 160.5 50.2 159.96 52.17 161.38 51.18 161.71 49.98"/><path class="cls-55" d="M202.07,67.45l.77,1.2.76-.22s.11,0,.22.22.33-.54.33-.54l.33-.22-1-1.1Z" transform="translate(-41.45 -10.01)"/><path class="cls-62" d="M201.08,68.54l1.87.11-.77-1.2Z" transform="translate(-41.45 -10.01)"/></g><g id="_2-3" data-name="2"><g id="_2-4" data-name="2"><polygon class="cls-64" points="115.3 113.94 117.94 113.39 116.84 110.98 115.74 111.96 115.3 113.94"/><polygon class="cls-65" points="113.66 112.84 114.86 110.98 115.74 111.96 115.3 113.94 113.66 112.84"/><polygon class="cls-66" points="114.86 110.98 116.18 110.54 116.84 110.98 115.74 111.96 114.86 110.98"/><polygon class="cls-65" points="113.22 114.16 113.99 112.95 115.08 113.39 114.86 114.82 113.22 114.16"/><polygon class="cls-64" points="116.51 114.05 116.07 112.95 115.08 113.39 114.86 114.82 116.51 114.05"/><polygon class="cls-66" points="113.99 112.95 115.19 112.51 116.07 112.95 115.08 113.39 113.99 112.95"/><polygon class="cls-67" points="114.86 114.82 115.85 113.83 116.07 113.06 116.51 114.05 114.86 114.82"/></g><polygon class="cls-63" points="114.86 114.82 117.39 115.26 120.46 113.39 117.39 112.07 117.94 113.39 116.4 113.72 116.51 114.05 114.86 114.82"/></g><g id="_1" data-name="1"><polygon class="cls-63" points="120.02 109.77 121.89 109.66 124.19 108.23 121.67 106.81 120.9 107.14 122.21 107.8 122.21 108.45 120.02 109.77"/><path class="cls-55" d="M161.47,116.6c-.11,0-2.19,1.31-2.19,1.31l2.19,1.21,2.2-1.32-2.2-1.2Z" transform="translate(-41.45 -10.01)"/><polygon class="cls-56" points="120.02 109.77 120.02 109.11 117.83 107.91 117.83 108.56 120.02 109.77"/><polygon class="cls-56" points="122.21 107.8 122.21 108.34 120.02 109.77 120.02 109.11 122.21 107.8"/><polygon class="cls-57" points="120.02 102.09 120.02 108.56 120.68 108.12 120.68 101.65 120.02 102.09"/><polygon class="cls-58" points="119.25 101.76 119.25 108.12 120.02 108.56 120.02 102.09 119.25 101.76"/><path class="cls-58" d="M161.47,115.83s1.76-1,1.87-1.1.22-1.2.22-1.2l.88-.55-.44,2.3-2.53,1.54Z" transform="translate(-41.45 -10.01)"/><polygon class="cls-58" points="119.25 105.49 118.92 105.16 118.7 104.28 118.16 104.28 118.37 105.49 119.25 106.37 119.25 105.49"/><path class="cls-57" d="M164.44,113l.65-.22a16,16,0,0,1-.32,2.08,6.31,6.31,0,0,1-.77.44Z" transform="translate(-41.45 -10.01)"/><polygon class="cls-59" points="118.7 104.28 119.25 104.28 119.25 105.49 118.92 105.16 118.7 104.28"/><polygon class="cls-60" points="117.83 102.53 117.83 104.06 118.16 104.28 118.48 104.28 119.03 100.33 117.83 100.77 116.95 99.57 116.95 102.31 117.39 103.19 117.83 102.53"/><path class="cls-56" d="M157.2,109.25a4.11,4.11,0,0,0,.11,1.53,5.3,5.3,0,0,0,.65,1.54l.44.22V109.8Z" transform="translate(-41.45 -10.01)"/><polygon class="cls-55" points="119.8 96.82 116.95 99.57 117.83 100.77 119.8 96.82"/><polygon class="cls-56" points="119.25 100.55 120.57 100.77 120.79 102.09 121.01 101.32 121.34 100.77 121.89 100.77 122.43 103.52 119.8 104.94 119.25 104.28 118.48 104.28 119.03 100.33 119.25 100.55"/><path class="cls-61" d="M157.2,109.25s1-.11,1-.22.22-.66.11-.77.22-.22.22-.22l.66.77-.77.66Z" transform="translate(-41.45 -10.01)"/><path class="cls-61" d="M165.42,109l-2.08,1.75.44,2.75s.55-.11.55-.33.87-2.53.87-2.64A7.33,7.33,0,0,0,165.42,109Z" transform="translate(-41.45 -10.01)"/><path class="cls-55" d="M160.49,110.34l4.93-1.42-2.08,1.75h-.55l-.33.55s-.11.88-.22.77a7.68,7.68,0,0,1-.33-1.32l-1.53-.11v-.22Z" transform="translate(-41.45 -10.01)"/><path class="cls-56" d="M164.44,113s1,.22,1.09.55a1.89,1.89,0,0,1,.11.54l1.87-4.38-2.2-.77-.22,1.86Z" transform="translate(-41.45 -10.01)"/><polygon class="cls-61" points="119.8 96.82 119.03 100.33 117.83 100.77 119.8 96.82"/><path class="cls-56" d="M162.24,105.63s0,.87-.11.87a7.35,7.35,0,0,0-.87.33l-.77,3.51,4.93-1.42-.11-.55-.87-.11.44-1-.44-1.09-.55.11.22-.33-1,.43Z" transform="translate(-41.45 -10.01)"/><path class="cls-60" d="M165.75,107.16l.77-.11-.22.66s2,1.76,1.87,1.76-2.75-.55-2.75-.55l-.11-.55-.87-.11.44-1-.44-1.09Z" transform="translate(-41.45 -10.01)"/><path class="cls-68" d="M168.17,110l-2.75-1.1,2.75.55Z" transform="translate(-41.45 -10.01)"/><path class="cls-68" d="M165.75,114.07s.88-.76,1.1-.65.44-.22.44-.22l-.11-1.1h.33l.77-2.08-.55-.33Z" transform="translate(-41.45 -10.01)"/><path class="cls-61" d="M160.49,107.6l-.22-.88,1-2.08-.11,1.86.11.44Z" transform="translate(-41.45 -10.01)"/><polygon class="cls-55" points="120.79 95.62 119.8 94.52 119.69 96.5 119.8 96.82 120.79 96.61 120.79 95.62"/><polygon class="cls-55" points="121.12 95.84 122.1 94.85 122.43 95.73 122.54 95.84 122.65 95.95 121.67 96.39 121.12 95.84"/></g></svg>