<?xml version="1.0" encoding="utf-8"?>
<!-- Generator: Adobe Illustrator 24.0.1, SVG Export Plug-In . SVG Version: 6.00 Build 0)  -->
<svg version="1.1" id="Layer_1" xmlns="http://www.w3.org/2000/svg" xmlns:xlink="http://www.w3.org/1999/xlink" x="0px" y="0px"
	 viewBox="0 0 253.5 201.9" style="enable-background:new 0 0 253.5 201.9;" xml:space="preserve">
<style type="text/css">
	.st0{fill:#F0F0F0;}
	.st1{fill:url(#SVGID_1_);}
	.st2{fill:#3F3D3D;}
	.st3{fill:#2B2A2A;}
	.st4{fill:#191919;}
	.st5{fill:#0F75B7;}
	.st6{fill:#6BC2E8;}
	.st7{fill:#135E87;}
	.st8{fill:#4EADCE;}
	.st9{fill:#91C2D8;}
	.st10{fill:#586060;}
	.st11{fill:#515151;}
	.st12{fill:#DEDEFF;}
	.st13{fill:#276689;}
	.st14{fill:#7B8484;}
	.st15{fill:#7E8988;}
	.st16{fill:#09486B;}
	.st17{fill:#FFFFFF;}
	.st18{fill:#F9762D;}
	.st19{fill:#FFDA8F;}
	.st20{fill:#EA3636;}
	.st21{fill:#F0EFF9;}
	.st22{fill:#C8C6F7;}
	.st23{fill:#9292EA;}
	.st24{fill:#CECEEF;}
	.st25{fill:#4D4D96;}
	.st26{fill:#6ACB48;}
	.st27{fill:#66CC33;}
	.st28{fill:#669933;}
	.st29{fill:#AAE293;}
	.st30{fill:#1E3813;}
	.st31{fill:#D61D1D;}
	.st32{fill:#992E48;}
	.st33{fill:#F0F0FF;}
	.st34{fill:#A0A0A0;}
	.st35{fill:#374F66;}
	.st36{fill:url(#SVGID_2_);}
	.st37{fill:url(#SVGID_3_);}
	.st38{fill:#231F20;}
</style>
<title>details-1-office-worker</title>
<path class="st0" d="M90.6,68.3c46-16.6,80.7-88.8,134.9-30.6s9.2,146.4-56,156.9s-140.9-18-154.4-64.4C-8,50.9,59.8,79.4,90.6,68.3
	z"/>
<linearGradient id="SVGID_1_" gradientUnits="userSpaceOnUse" x1="-146.1541" y1="-1274.3644" x2="113.2759" y2="-1274.3644" gradientTransform="matrix(-0.95 -0.19 0.19 -0.94 349.1509 -1111.2435)">
	<stop  offset="0" style="stop-color:#00BFC2"/>
	<stop  offset="0.49" style="stop-color:#00BDC4"/>
	<stop  offset="0.67" style="stop-color:#00B6C9"/>
	<stop  offset="0.79" style="stop-color:#00ABD4"/>
	<stop  offset="0.89" style="stop-color:#009AE2"/>
	<stop  offset="0.98" style="stop-color:#0084F5"/>
	<stop  offset="1" style="stop-color:#007DFB"/>
</linearGradient>
<path class="st1" d="M85,56c48.7-17.5,85.4-94,142.8-32.4s9.8,155-59.3,166.1S19.4,170.6,5.1,121.5C-19.5,37.5,52.3,67.8,85,56z"/>
<polygon class="st2" points="213.7,108.4 140,150.6 29.8,87 103.4,45.1 "/>
<g id="_34">
	<path class="st3" d="M76.1,74.1c1.7,1.5,12.7,6.9,12.7,6.9c1.4,0.5,2.9,0.6,4.4,0.4c2.5-0.4,33.4-17.6,33.4-17.6s2.9-2.2,2.2-3.5
		c-0.8-1.3-11.2-8.6-11.2-8.6l-42,17.5l-0.1,3.1l0.3,0.9L76.1,74.1z"/>
	<path class="st4" d="M92.9,72.9c0,0,3.5,0.3,4.1,0.9c0.7,0.6,1,1.5,1.6,1.8c0.5,0.2,1.2,0.1,2.5-0.5c1.3-0.6,4.1-4.3,4.1-4.3
		l-5.5-4.6l-7.5,3.5L92.9,72.9z"/>
	<path class="st4" d="M117.8,59.8c0,0,2.7-0.8,3.4,0.1c0.7,0.9,1.1,1.8,1.6,2c0.6,0,1.2-0.1,1.7-0.3c0.6-1,1.1-2,1.6-3.1
		c-0.2-1.2-0.5-2.4-0.9-3.6l-4.4-0.4l-2.5,1.8L117.8,59.8z"/>
	<path class="st3" d="M97.4,76.1c-0.5,1.2-0.5,3.2-1.3,3.5c-0.5,0.2-1.8-1-2.2-1.3c-1.3-0.8-1.6-3.1-0.6-5c0.9-1.7,2.5-2.3,3.5-1.5
		c0.5,0.4,1.8,1,1.9,1.9C98.7,74.5,97.6,75.4,97.4,76.1z"/>
	<path class="st3" d="M121.5,62.8c-0.5,1.2-0.5,3.2-1.3,3.5c-0.5,0.2-1.8-1-2.2-1.3c-1.3-0.8-1.6-3.1-0.6-5c0.9-1.7,2.5-2.3,3.5-1.5
		c0.5,0.4,1.8,1,1.9,1.9C122.8,61.2,121.7,62.1,121.5,62.8z"/>
	<path class="st5" d="M75.2,71.9l11.3,6.1c0,0,2.8,0.8,4.1,0.7c1.2-0.2,2.7-0.2,3-0.9c0.2-0.7,0.7-4.3,1.5-5.4
		c0.9-1.1,3.1-2.1,3.9-1.9c0.8,0.2,0.9,0.6,0.8,1.5c0,0.9-0.1,1.9-0.1,1.9s0,1.4,0.8,1.5s16.6-8.7,16.6-8.7c0.5-0.7,0.8-1.4,1-2.2
		c0.2-1.1,0.8-3.8,1.3-4.7c0.9-1.1,2.1-1.9,3.6-2.3c1.1-0.1,1.2,0.6,1.2,1.2c0,0.4,0,0.8,0,1.2c0,0-0.7,1.6-0.1,1.8
		c0.6,0.2,2.3-1.1,2.7-1.9c1.3-1.6,2-3.5,2.1-5.6c0.1-2.5,0.2-3.9-0.6-4.6s-13.2-7.4-14-7.6c-0.7-0.3-1.5-0.3-2.1-0.1
		c-0.8,0.4-4.8,1.6-4.8,1.6l-3.3-2.1c-0.6-0.2-1.2-0.2-1.7-0.1c-0.8,0.3-13.2,6.8-13.2,6.8L82.7,57c0,0-8.6,5.6-9,6.8
		c-0.5,1.4-0.8,2.9-0.7,4.4c0.2,1.4,0.2,2,0.6,2.5C74.1,71.1,74.6,71.5,75.2,71.9z"/>
	<path class="st6" d="M73.7,63.7l14.8,8.5l9.6-6.1L97,64.7l-13.8-7.3L82.7,57c0,0-4.4,2.9-4.6,3.1c-1.4,1-2.8,2.1-4.1,3.3
		C73.1,64.3,73.7,63.7,73.7,63.7z"/>
	<path class="st6" d="M128.6,50.5c-0.1-0.3-0.2-0.6-0.5-0.8c-0.8-0.8-13.1-7.4-14-7.6c-0.7-0.3-1.5-0.4-2.1-0.1
		c-0.4,0.2-1.4,0.5-2.4,0.8l16.2,9L128.6,50.5z"/>
	<path class="st7" d="M128.2,49.7l-0.1-0.1c0,0.4-0.3,0.7-0.6,0.9l-4.9,1.9l-0.8,0.3l-5.6-4.5l-14.3,6.8l-4.7,11
		c0,0-7.8,5.7-8.4,5.9s-0.9-0.1-0.9-0.1s-12.3-6.9-13.2-7.5c-0.7-0.5-0.9-0.7-0.8-0.8c-0.2,0.2-0.1,0.1-0.1,0.2
		c-0.5,1.4-0.8,2.9-0.7,4.4c0.2,1.4,0.2,2,0.6,2.5c0.4,0.5,0.9,0.9,1.5,1.3L86.4,78c0,0,2.8,0.8,4.1,0.7s2.7-0.2,3-0.9
		s0.7-4.3,1.5-5.4c0.9-1.1,3.1-2.1,3.9-1.9c0.8,0.2,0.9,0.6,0.8,1.5s-0.1,1.9-0.1,1.9s0,1.4,0.8,1.5s16.6-8.7,16.6-8.7
		c0.5-0.7,0.8-1.4,1-2.2c0.2-1.1,0.8-3.8,1.3-4.7c0.9-1.1,2.1-1.9,3.6-2.3c1.1-0.1,1.2,0.6,1.2,1.2c0,0.4,0,0.8,0,1.2
		c0,0-0.7,1.6-0.1,1.8c0.6,0.2,2.3-1.1,2.7-1.9c1.3-1.6,2-3.5,2.1-5.6C128.8,51.9,129,50.5,128.2,49.7z"/>
	<path class="st8" d="M121.5,58L121.5,58z"/>
	<path class="st8" d="M128,53.1c-0.2,1.2-0.6,0.8-1.3,2.2c-0.5,0.9-2.5,1.8-3.9,2.3c1-0.1,1.1,0.7,1.2,1.2c0,0.4,0,0.8,0,1.2
		c0,0-0.7,1.6-0.1,1.8c0.6,0.2,2.3-1.1,2.7-1.9c1.3-1.6,2-3.5,2.1-5.6c0.1-2.5,0.3-4-0.7-4.7C128.2,50.7,128.2,51.9,128,53.1z"/>
	<path class="st8" d="M118,64.4c0.2-1.1,0.8-3.8,1.3-4.7c0.5-0.7,1.2-1.3,2-1.7L96.7,71.1l0,0c0.7-0.4,1.4-0.6,2.2-0.6
		c0.8,0.2,0.9,0.6,0.8,1.5c0,0.9-0.1,1.9-0.1,1.9s-0.1,1.4,0.8,1.5c0.8,0,16.6-8.7,16.6-8.7C117.4,66,117.8,65.2,118,64.4z"/>
	<path class="st8" d="M96.7,70.9c0,0-2.9,2.1-4.2,2.8c-1.4,0.8-3.2,0.8-4.6,0l-0.3,1.8l0.2,2.7c0.9,0.2,1.8,0.4,2.7,0.3
		c1.2-0.2,2.7-0.2,3-0.9c0.2-0.7,0.7-4.3,1.5-5.4C95.5,71.7,96.1,71.3,96.7,70.9L96.7,70.9z"/>
	<path class="st9" d="M89.3,77.8c-1.2-0.9-0.9-0.8-1.2-1.9c-0.1-0.6,0.4-2.3,0.8-3.9c-0.3,0.1-0.7,0-1-0.1c0,0-12.3-6.9-13.2-7.5
		c-0.7-0.5-0.9-0.7-0.8-0.8c-0.2,0.2-0.1,0.1-0.2,0.2c-0.5,1.4-0.8,2.9-0.7,4.4c0.2,1.4,0.2,2,0.6,2.5c0.4,0.5,0.9,0.9,1.5,1.3
		L86.4,78c0,0,2.8,0.8,4.1,0.7l0.9-0.1C90.7,78.5,90,78.2,89.3,77.8z"/>
	<path class="st10" d="M83.2,57.3l5.7-7.9c1.7,1.1,3.5,2.1,5.4,3c3.5,1.7,6.9,3,6.9,3L97,64.7c0,0-5.2-2.6-7.4-3.9
		C87.4,59.5,83.2,57.3,83.2,57.3z"/>
	<path class="st11" d="M106.2,53.4c0,0.2,1.9,6.6,1.9,6.6l-1,0.5l-6.8,3.6c0,0-1.1,0.4-1.4-0.1c-0.3-0.4,0-1.1,0-1.1l3.4-7.7
		L106.2,53.4z"/>
	<polygon class="st11" points="107.1,53.1 109.4,59.4 116.6,55.6 113.8,49.8 	"/>
	<path class="st11" d="M114.6,49.4l3,5.6l3.8-2c0,0-4.1-3.7-4.9-4C115.8,48.9,115.1,49.1,114.6,49.4z"/>
	<path class="st3" d="M108,63.6c-0.3,0.3-0.8,0.4-1.2,0.4c-0.4-0.1-0.6-0.5-0.6-0.8c0.1-0.4,0.4-0.6,0.8-0.8
		c0.2-0.1,0.5-0.2,0.8-0.1c0.4,0.1,0.6,0.5,0.5,0.8C108.2,63.3,108.1,63.5,108,63.6z"/>
	<path class="st12" d="M106.7,63.9c0.4-0.2,0.9-0.5,1.3-0.8c0,0,0.4-0.4,0.2-0.6c-0.2-0.2-1.5,0.6-1.5,0.6s-0.9,0.2-0.5,0.5
		C106.6,64,106.7,63.9,106.7,63.9z"/>
	<path class="st3" d="M116.6,59.2c-0.3,0.3-0.8,0.4-1.2,0.4c-0.4-0.1-0.6-0.5-0.6-0.8c0.1-0.4,0.4-0.6,0.8-0.8
		c0.2-0.1,0.5-0.2,0.8-0.1c0.4,0.1,0.6,0.5,0.5,0.8C116.8,58.9,116.7,59.1,116.6,59.2z"/>
	<path class="st12" d="M115.3,59.5c0.5-0.2,0.9-0.5,1.3-0.8c0,0,0.4-0.4,0.2-0.6c-0.2-0.2-1.5,0.6-1.5,0.6s-0.9,0.3-0.5,0.5
		C115.2,59.5,115.3,59.5,115.3,59.5z"/>
	<path class="st4" d="M100.8,74.2v-0.9c0-0.1-0.6-6-1.2-7.1c-0.5-0.7-1.2-1.2-2-1.5h-0.1l4.2-9.7l0,0l4.7-2.3l2.9,8.3l0.1,8.8l0,0
		L100.8,74.2z M97.8,64.7c0.8,0.3,1.5,0.8,2,1.5c0.6,1,1.2,6.9,1.2,7.1V74l8.4-4.3l-0.1-8.7l-2.8-8.1l-4.5,2.2L97.8,64.7z"/>
	<path class="st4" d="M109.4,69.9v-0.1l-0.1-8.7l-2.8-8.2l7.6-3.7l4.3,8.2l0,0c-0.6,0.8-1,1.7-1.2,2.6c-0.3,1.3-0.8,5.9-0.8,6l0,0
		l0,0L109.4,69.9z M106.6,52.9l2.8,8.1l0.1,8.6l6.7-3.8c0-0.4,0.4-4.7,0.8-5.9c0.3-0.9,0.7-1.8,1.2-2.6l-0.3-0.6l-3.9-7.4
		L106.6,52.9z"/>
	<path class="st13" d="M83,57.8c0,0.5,0.2,1,0.5,1.4c0.5,0.4,9.9,5.4,9.9,5.4c0.4,0.1,0.8,0.1,1.2,0l0.6-0.1L83,57.8z"/>
	<path class="st6" d="M89.1,48.2c0,0,1.3,1.3,5.6,3.5c3.3,1.6,7.2,3.4,7.2,3.4l14.3-6.8L104.8,42c-0.4-0.3-0.9-0.5-1.4-0.6
		c-0.9,0.1-1.8,0.4-2.5,0.9C100.6,42.2,89.1,48.2,89.1,48.2z"/>
	<path class="st11" d="M98.9,77.2c-0.7,1.8-2.2,3-3.5,2.3c-1.2-0.7-1.6-3.1-0.6-5c0.9-1.7,2.4-2.3,3.4-1.5
		C99.3,73.7,99.5,75.5,98.9,77.2z"/>
	<path class="st14" d="M98.1,76.8c-0.4,1.1-1.4,1.8-2.1,1.4c-0.8-0.4-1-1.9-0.4-3.1c0.6-1.1,1.5-1.4,2.1-0.9
		C98.3,74.7,98.4,75.8,98.1,76.8z"/>
	<path class="st11" d="M123.3,64c-0.7,1.8-2.2,3-3.5,2.3c-1.2-0.7-1.6-3.1-0.6-5c0.9-1.7,2.4-2.3,3.4-1.5
		C123.7,60.5,123.9,62.3,123.3,64z"/>
	<path class="st14" d="M122.5,63.6c-0.4,1.1-1.4,1.8-2.1,1.4c-0.8-0.4-1-1.9-0.4-3.1c0.6-1.1,1.5-1.4,2.1-0.9
		C122.7,61.8,122.9,62.8,122.5,63.6z"/>
	<path class="st15" d="M88.9,49.5l-5.7,7.9c0,0,0.9,0.5,2.1,1.1c2.7,0.5,5.5,0.1,7.9-1.1c1.7-0.7,3.1-1.9,4-3.4l0,0
		c-0.9-0.4-1.9-0.9-2.9-1.4C92.5,51.7,90.7,50.6,88.9,49.5z"/>
	<path class="st3" d="M99.6,63.9c0.2,0.6,0.9,1.1,1.5,1c1.3-0.1,1.4-0.4,1.4-0.4c0-0.6-0.3-1.1-0.9-1.4c-0.6-0.3-1.3-0.6-2-0.8
		l-0.3,0.4L100,63L99.6,63.9z"/>
	<path class="st3" d="M83.1,56.5c-0.4-0.1-0.7-0.4-0.8-0.8c-0.1-0.4-0.1-0.7,0-1.1c0,0,0.5-0.5,0.9-0.2c0.6,0.4,1,0.6,1,0.6
		L83.1,56.5z"/>
	<path class="st16" d="M73.1,66.3c0,0,0,0.8,1.7,1.8c0.8,0.4,10.7,6,11.5,6.5c0.6,0.4,1.2,0.6,1.9,0.6c0.9,0.1,1.7-0.4,2-1.2
		c0.1-0.7,0.2-1.4,0.3-2l-0.9,1.1l-1,0.2l-1.9-0.9l-1.5-1.1l-7.4-4.2l-1.3-0.7l-2.2-0.6L73.6,64l-0.4,1.6L73.1,66.3z"/>
	<path class="st17" d="M90.5,71.8c-0.3,0.2-0.6,0.4-1,0.5l-0.9,0.2l-2.3-0.8l-1.1-0.6l-0.8,1.7l2.5,1.3c0.5,0.2,1,0.3,1.6,0.3
		c0.5-0.1,1.3-0.1,1.6-0.5S90.5,71.8,90.5,71.8z"/>
	<path class="st17" d="M73.6,64c0.3,0.4,0.7,0.7,1.1,1c0.4,0.3,1.8,1.2,1.8,1.2l-0.6,1.7c-0.8-0.4-1.5-0.9-2.2-1.5
		c-0.2-0.3-0.4-0.6-0.5-0.9c0-0.3,0.1-0.7,0.2-1C73.5,64.4,73.6,64.2,73.6,64z"/>
	<path class="st18" d="M89.5,72.3l-0.8,0.2l-0.5,2c0.1,0,0.2,0,0.2,0c0.5-0.1,1.3-0.1,1.6-0.5c0.3-0.4,0.3-2.2,0.3-2.2
		C90.2,72.1,89.8,72.2,89.5,72.3z"/>
	<path class="st19" d="M126.9,54.3c0,0-0.2,1,0.2,1.4c0.3,0.3,0.8,0.4,1.2,0.3c0.3-0.1,0.3-0.2,0.3-0.2c0.1-0.4,0.1-0.8,0.2-1.2
		c0-0.5-0.1-1.1-0.2-1.6h-0.7L126.9,54.3z"/>
	<path class="st20" d="M128.6,50.5c0.1,0.4-0.1,0.8-0.5,0.9c0,0,0,0,0,0c-0.4,0.1-0.8,0.2-1.1,0.1l-0.1,2.5c0,0.4,0.1,0.7,0.4,1
		c0.8,0.7,1.4-0.4,1.4-0.4l0.1-3.1L128.6,50.5z"/>
	<path class="st21" d="M128.8,53.7c-0.2,0.2-0.4,0.3-0.7,0.5c-0.4,0.1-0.8,0.1-1.2,0c0,0.4,0.1,0.7,0.4,1c0.8,0.7,1.4-0.4,1.4-0.4
		L128.8,53.7z"/>
	<path class="st13" d="M73.8,70.7c0.1,0,1.2,1.1,1.5,0.4c0.1-0.3,0.2-0.7,0.2-1l8.8,4.8c-0.2,0.5-0.1,1.1,0.1,1.6
		c0.3,0.4,0.7,0.8,1.1,1l0.8,0.4L75,71.8c-0.3-0.2-0.6-0.4-0.8-0.7C74.1,71,74,70.9,73.8,70.7z"/>
	<polygon class="st17" points="77.1,66.5 76.5,68.1 83.8,72.2 84.4,70.7 	"/>
	<path class="st22" d="M128.2,54.5c0,0.3-0.1,0.6-0.2,0.8c0.3-0.1,0.5-0.3,0.7-0.6v-1c-0.2,0.2-0.4,0.3-0.6,0.4
		C128.2,54.2,128.2,54.4,128.2,54.5z"/>
	<polygon class="st17" points="93.6,45.8 106.6,52.5 108,48.1 96.1,42.1 	"/>
	<polygon class="st23" points="108,48.1 109.8,47.2 111.5,50.2 106.6,52.5 	"/>
	<polygon class="st24" points="96.1,42.1 97.9,41.3 109.8,47.2 108,48.1 	"/>
	<path class="st24" d="M95.9,42.1l-2.5,3.8l1.6,0.8c1-0.1,2.7-0.4,3.5-1.4c0.3-0.4,0.7-0.9,1-1.4L95.9,42.1z"/>
	<polygon class="st23" points="99.5,43.9 101.5,43.1 97.8,41.3 95.9,42.1 	"/>
	<polygon class="st25" points="103.3,71.1 102.4,71.6 102.4,70.5 103.3,70 	"/>
	<polygon class="st25" points="104.3,69.5 103.4,70 103.4,69 104.3,68.4 	"/>
	<polygon class="st25" points="105.2,69.9 104.3,70.5 104.3,69.4 105.2,68.9 	"/>
	<polygon class="st25" points="106.2,68.4 105.2,68.9 105.3,67.9 106.2,67.3 	"/>
	<polygon class="st25" points="107.1,69 106.1,69.5 106.2,68.4 107.1,67.9 	"/>
</g>
<g id="_23">
	<path class="st3" d="M105.7,90.6c1.7,1.5,12.7,6.9,12.7,6.9c1.4,0.5,2.9,0.6,4.4,0.4c2.5-0.4,30.9-16.1,30.9-16.1s3.6-1.9,1.6-4
		c-1-1.1-12-7.9-12-7.9L105,85.8l-0.1,3.1l0.3,0.9L105.7,90.6z"/>
	<path class="st4" d="M122.1,89.7c0,0,3.5,0.3,4.1,0.9c0.7,0.6,1,1.5,1.6,1.8c0.5,0.2,1.2,0.2,2.5-0.5s4.1-4.3,4.1-4.3L129,83
		l-7.5,3.5L122.1,89.7z"/>
	<path class="st4" d="M145.4,77.5c0,0,2.7-0.8,3.4,0.1c0.7,0.9,1.1,1.8,1.6,2c0.6,0,1.2-0.1,1.7-0.3c0.6-1,1.1-2,1.6-3.1
		c-0.2-1.2-0.5-2.4-0.9-3.6l-4.4-0.4l-2.5,1.8L145.4,77.5z"/>
	<path class="st3" d="M128,92.3c-0.5,1.2-0.5,3.3-1.4,3.6c-0.5,0.2-1.8-1.1-2.3-1.3c-1.4-0.8-1.6-3.2-0.6-5.1
		c0.9-1.7,2.5-2.3,3.6-1.5c0.5,0.4,1.9,1.1,1.9,1.9C129.3,90.6,128.2,91.5,128,92.3z"/>
	<path class="st3" d="M149,80.5c-0.4,1.2-0.5,3.2-1.3,3.5c-0.5,0.2-1.8-1-2.2-1.3c-1.3-0.8-1.6-3.1-0.6-5c0.9-1.7,2.5-2.3,3.5-1.5
		c0.5,0.4,1.8,1,1.9,1.9C150.4,78.8,149.3,79.7,149,80.5z"/>
	<path class="st11" d="M129.5,93.4c-0.7,1.9-2.3,3-3.6,2.3c-1.3-0.7-1.6-3.1-0.6-5.1c0.9-1.8,2.5-2.4,3.5-1.5
		C129.9,90,130.1,91.7,129.5,93.4z"/>
	<path class="st14" d="M128.7,93c-0.4,1.2-1.4,1.9-2.2,1.4c-0.8-0.4-1-1.9-0.4-3.1c0.6-1.1,1.5-1.5,2.2-1
		C128.9,90.8,129,91.9,128.7,93z"/>
	<path class="st11" d="M150.8,81.6c-0.7,1.8-2.2,3-3.5,2.3c-1.2-0.7-1.6-3.1-0.6-5c0.9-1.7,2.4-2.3,3.4-1.5
		C151.2,78.1,151.5,80,150.8,81.6z"/>
	<path class="st14" d="M150,81.3c-0.4,1.1-1.4,1.8-2.1,1.4c-0.8-0.4-1-1.9-0.4-3c0.6-1.1,1.5-1.4,2.1-0.9
		C150.2,79.4,150.4,80.4,150,81.3z"/>
	<path class="st26" d="M115.3,94.2c1.1,0.6,2.2,1.1,3.4,1.5c0.8,0.3,1.6,0.3,2.4,0.1c1-0.4,1.9-1,2.8-1.5l0.6-3
		c0.2-1.2,0.9-2.3,1.9-3c0.7-0.6,1.5-1,2.4-1.2c0,0,1.8-0.2,1.6,2.1c-0.1,1-0.1,1.7-0.1,1.7s-0.1,1,0.8,0.8s13-7.3,13-7.3
		c0.7-0.8,1.1-1.7,1.4-2.6c0.3-1.4,0.8-4.2,0.8-4.2c0.4-0.9,1.2-1.7,2.2-2.1c0.7-0.3,1.5-0.4,2.3-0.2c0.5,0.6,0.7,1.4,0.5,2.1
		c-0.2,1.4,0.4,2.3,0.9,2.3s1.6-0.7,1.8-1.4c0.2-0.8,2.3-6.7,2-8.1c-0.3-1.6-0.4-2.1-1.8-3c-1.4-0.9-11.2-5.6-11.2-5.6
		c-1.2-0.6-2.6-0.6-3.9-0.1l-1.9,0.8l-4.4-2.1c0,0-1.9-0.6-3.1,0.1c-2.1,1.2-11.9,6.8-11.9,6.8l-4.3,7.5l-7.4,4.6c0,0-2.9,1.9-3,4.5
		c0,1.1-0.1,2.1-0.1,2.1c-0.1,1,0.4,2,1.3,2.5C105.6,89,115.3,94.2,115.3,94.2z"/>
	<path class="st27" d="M155.8,69.9c-0.3-1.5-0.4-2-1.6-2.8l-5.1,2.2l-3.3-3.6l-3.1,0.1l-12.2,6.5l-3.6,9.4l-8.9,6.6
		c0.1,1.1,0.1,2.1,0.1,3.2c-0.1,3.4,0.1,2.8,0.6,3.5c0.6,0.7,2.8,0.5,2.8,0.5c1-0.5,2.3-1.3,2.3-1.3l0.6-3c0.2-1.2,0.9-2.3,1.9-3
		c0.7-0.6,1.5-1,2.4-1.2c0,0,1.8-0.2,1.6,2.1c-0.1,1-0.1,1.7-0.1,1.7s-0.1,1,0.8,0.8s13-7.3,13-7.3c0.7-0.8,1.1-1.7,1.4-2.7
		c0.3-1.4,0.8-4.2,0.8-4.2c0.4-0.9,1.2-1.7,2.2-2.1c0.7-0.3,1.5-0.4,2.3-0.2c0.5,0.6,0.7,1.4,0.5,2.1c-0.2,1.4,0.4,2.3,0.9,2.2
		c0.4,0,1.6-0.6,1.8-1.4C153.9,77.2,156,71.2,155.8,69.9z"/>
	<path class="st26" d="M154.2,68c0,0,0.6,0.3,1-0.1c-0.3-0.4-0.7-0.8-1.1-1.1c-1.4-0.9-11.2-5.6-11.2-5.6c-1.2-0.6-2.6-0.6-3.8-0.1
		l-1.9,0.8l-4.4-2.1c-1.3-0.2-2.7,0-3.8,0.6c-2.1,1.3-11.1,6.3-11.1,6.3l-4.3,7.5l-7.4,4.6c-0.8,0.5-1.5,1.2-2.1,2.1
		c0,0.3,0.1,0.6,0.3,0.9c0.6,0.6,4.5,3,8.4,4.9c1.8,0.9,4.7,3.5,5.1,2.1c0.3-1.3,9.6-6.9,9.6-6.9l0.1-0.2l3.4-8.5l13.1-7.3l5.3,4.2
		L154.2,68z"/>
	<polygon class="st10" points="113.8,74.6 118.1,67.4 129.9,73.4 126.6,81.3 	"/>
	<path class="st11" d="M128.3,80.7l2.8-7l5.9-3.4c0.3,1,0.6,2.1,0.8,3.1c0.2,1,0.4,2,0.5,3l-9,5.2c-0.3,0.1-0.7,0.1-1,0.1
		C127.8,81.5,128.3,80.7,128.3,80.7z"/>
	<path class="st11" d="M138.2,69.6c0,0,0.7,2.2,0.9,3.4s0.5,2.8,0.5,2.8l8.3-4.6c0.2-0.1,0.3-0.4,0.1-0.6c0-0.1-0.1-0.1-0.1-0.1
		c-0.4-0.4-4.3-3.8-4.3-3.8L138.2,69.6z"/>
	<path class="st28" d="M117.4,95.1c-1.1-0.4-0.8-1.8-0.8-1.8l0.1-1.9l-12.6-6.6c0,0-0.1,1.2-0.1,2.3c0.1,0.7,0.6,1.4,1.2,1.8
		c2.9,1.6,10,5.3,10,5.3C115.9,94.5,116.6,94.8,117.4,95.1z"/>
	<path class="st29" d="M112.6,74.9L106,79c-0.8,0.5-1.5,1.2-2.1,2.1c0,0.3,0.1,0.6,0.3,0.9c0.6,0.6,4.5,3,8.4,4.9
		c1.8,0.9,4.7,3.5,5.1,2.1c0.3-1.1,7.4-5.5,9.2-6.7C122.6,80,116.3,76.7,112.6,74.9z"/>
	<path class="st30" d="M104.5,81.4c0,0,4,2.1,6.2,3.3c2.3,1.2,7.6,3.9,7.6,3.9l-1.6,1.2l-12.5-6.4L104.5,81.4z"/>
	<path class="st29" d="M130.9,73.1l13-7.2c0,0,0-0.4-0.7-0.9c-0.3-0.2-2.9-1.5-5.9-2.9c-0.1,0-0.2-0.1-0.2-0.1l-4.4-2.1
		c-1.3-0.4-2.7-0.2-3.8,0.6c-1.9,1.1-9.3,5.3-10.8,6.2C122,68.7,128,71.7,130.9,73.1z"/>
	<path class="st28" d="M113.8,74.6l-0.4-0.4l-0.1,0.1l-7.4,4.6c-0.8,0.5-1.5,1.2-2.1,2.1c0,0.2,0.1,0.4,0.1,0.6l0.2-0.2
		c0.3-0.7,0.8-1.2,1.3-1.7l7.5-4.5L113.8,74.6z"/>
	<path class="st15" d="M118.1,67.4l-4.2,7.2l3.8,2c1.6-0.1,4.1-0.1,5.4-0.9c2-1.2,2.9-2.8,1.9-4.8L118.1,67.4z"/>
	<path class="st3" d="M130.3,78.8l2.2,1c0,0,0.5,0.3,0.4,0.5c-0.1,0.4-0.2,0.8-0.5,1.1c-0.2,0.1-0.4,0.1-0.6,0.1
		c-0.2-0.1-1.9-1-1.9-1c-0.2,0.1-0.3,0.3-0.4,0.4c-0.2,0.2-0.3,0.5-0.3,0.5s-0.2,0.3-0.4,0.1c-0.1-0.1-0.2-0.2-0.2-0.4L130.3,78.8z"
		/>
	<path class="st15" d="M132.5,79.8l-2.2-1l-0.4,0.6c0.7,0.3,2.4,1.4,2.4,1.4s0.1-0.2-0.1,0.3c-0.1,0.2-0.3,0.4-0.6,0.4l0.1,0.1
		c0.2,0,0.4,0,0.6-0.1c0.3-0.3,0.4-0.7,0.5-1.1C132.9,80.2,132.5,79.8,132.5,79.8z"/>
	<path class="st3" d="M113.7,73.9l-0.8-0.5l-0.4-0.3c-0.1-0.1-0.3-0.3-0.3-0.5c0.1-0.4,0.2-0.8,0.3-1.1c0,0,0.3-0.2,0.5-0.1
		c0.2,0.1,1.6,0.9,1.6,0.9L113.7,73.9z"/>
	<path class="st15" d="M114.2,72.8l0.4-0.5c0,0-1.4-0.9-1.6-0.9c-0.2-0.1-0.5,0.1-0.5,0.1c-0.2,0.4-0.3,0.7-0.3,1.1
		c0.1,0.2,0.2,0.4,0.3,0.5l0,0l-0.1-0.4c-0.1-0.5,0.4-0.9,0.4-0.9c0,0.2,0.2,0.4,0.4,0.5C113.3,72.3,113.7,72.5,114.2,72.8z"/>
	<path class="st28" d="M127.2,87.5c0.4-0.2,0.9-0.5,1.4-0.6c0,0,1.8-0.2,1.6,2.1c-0.1,1-0.1,1.7-0.1,1.7s0,1,0.8,0.8s13-7.3,13-7.3
		c0.7-0.8,1.1-1.7,1.4-2.6c0.3-1.4,0.8-4.2,0.8-4.2c0.3-0.7,0.8-1.2,1.4-1.7L127.2,87.5z"/>
	<path class="st28" d="M118.6,94.9c0.5,0.7,2.8,0.5,2.8,0.5c1-0.5,2.3-1.3,2.3-1.3l0.6-3c0.2-1.1,0.8-2.2,1.7-2.9
		c-1.6,1.1-4.2,3-5.5,3.5c-0.9,0.3-1.9,0-2.5-0.7C118,94.3,118.1,94.3,118.6,94.9z"/>
	<path class="st28" d="M148.8,75.1c0.6-0.2,1.2-0.2,1.8,0c0.5,0.6,0.7,1.4,0.5,2.1c-0.2,1.4,0.4,2.3,0.9,2.3s1.6-0.7,1.8-1.4
		c0.2-0.8,2.3-6.7,2-8.1c-0.3-1.5,0-0.8-0.8-2.3l-0.5,0.2c0.7,1.1,0.1,0.8-0.6,3.3C153.1,73.2,150,74.6,148.8,75.1z"/>
	<path class="st29" d="M153.6,66.6c-1.4-0.9-10.4-5.2-10.4-5.2c-1.2-0.6-2.6-0.6-3.8-0.1l-0.6,0.3c3.2,1.7,9.4,4.9,13.3,6.9l1.7-0.8
		c0.2-0.1,0.4-0.3,0.6-0.5C154.2,67.1,153.9,66.8,153.6,66.6z"/>
	<path class="st31" d="M155,67.8c0,0-1.1,0-1.1,0.8c0,0.8,0.6,2.8,1.1,3.1c0.2,0.1,0.3,0.2,0.5,0.2c0.4-0.9,0.4-1.9,0.2-2.8
		C155.2,67.8,155,67.8,155,67.8z"/>
	<path class="st22" d="M155.8,69.9c-0.1,0.1-0.2,0.3-0.3,0.4c-0.4,0.1-0.8,0.1-1.2,0c0.1,0.5,0.4,1,0.7,1.4c0.2,0.1,0.3,0.2,0.5,0.2
		C155.8,71.3,155.9,70.6,155.8,69.9z"/>
	<path class="st4" d="M131.4,89.8L131.4,89.8l-0.2-4.9c0.1-0.6-0.3-1.2-0.9-1.4c-0.6-0.2-1.2-0.2-1.8-0.2l0,0l-1.3-1.5l0,0l3.6-8.8
		l0,0l6.7-3.7v0c0,0,0.4,1.6,0.9,3.6c0.5,2,1.2,7.2,1.2,7.2l-0.3,5l0,0L131.4,89.8z M129.2,83.3c0.4,0,0.8,0.1,1.2,0.2
		c0.6,0.2,1.1,0.8,1,1.5l0.2,4.7l7.8-4.4l0.3-5c0,0-0.8-5.2-1.2-7.2c-0.4-1.8-0.8-3.3-0.9-3.6l-6.6,3.6l-3.6,8.8l1.2,1.4
		C128.8,83.3,129,83.3,129.2,83.3L129.2,83.3z"/>
	<path class="st4" d="M139.3,85.4L139.3,85.4l0.3-5.1c0,0-0.8-5.2-1.2-7.2c-0.2-1.2-0.6-2.4-0.9-3.6l0,0l0,0l6.1-3.4l0,0l5.4,4.9
		l0,0l-0.2,3.2l0,0c-1,0.5-1.9,1.2-2.8,1.9c-0.6,0.6-1.1,3.1-1.2,4.5c-0.1,0.7-0.4,1.5-0.9,2.1l0,0L139.3,85.4z M137.5,69.4
		c0.4,1.2,0.7,2.4,0.9,3.6c0.4,2.1,1.2,7.2,1.2,7.2l-0.3,5l4.5-2.8c0.4-0.6,0.7-1.3,0.8-2c0.1-1,0.6-3.8,1.3-4.5
		c0.9-0.7,1.8-1.4,2.8-1.9l0.2-3.1l-5.4-4.8L137.5,69.4z"/>
	<path class="st30" d="M105.6,89c0,0-1.2-1.7-0.4-1.2c1.3,0.8,10,5.3,10,5.3s-0.5,0.8,0.9,1.5C117.4,95.1,105.6,89,105.6,89z"/>
	<path class="st30" d="M136.7,78.8l1.5-0.8c0,0,0.7,0.5,0.7,0.8c-0.1,0.4-0.4,0.8-0.8,0.9c-0.5,0.3-1.4,0.2-1.5-0.1
		C136.5,79.3,136.6,79,136.7,78.8z"/>
	<path class="st28" d="M136.9,78.9c0,0-0.2,0.3,0.1,0.3c0.3,0.1,0.7,0.1,1,0c0.3-0.1,0.5-0.4,0.6-0.6c0.1,0.1,0.1,0.2,0.1,0.4
		c0,0.2-0.3,0.5-0.6,0.6c-0.3,0.2-0.7,0.3-1.1,0.3c-0.1,0-0.6,0.2-0.8-0.1c-0.1-0.4,0-0.8,0.3-1C136.8,78.8,136.9,78.8,136.9,78.9z"
		/>
	<path class="st30" d="M146,73.6l1.5-0.8c0,0,0.8,0.4,0.7,0.8c-0.1,0.4-0.4,0.8-0.8,0.9c-0.5,0.3-1.5,0.2-1.6-0.2
		C145.8,74.1,145.8,73.8,146,73.6z"/>
	<path class="st28" d="M146.3,73.7c0,0-0.2,0.3,0.1,0.3c0.3,0.1,0.7,0.1,1,0c0.3-0.1,0.5-0.4,0.6-0.6c0.1,0.1,0.1,0.2,0.1,0.4
		c0,0.2-0.3,0.5-0.6,0.7c-0.3,0.2-0.7,0.3-1.1,0.3c-0.1,0-0.6,0.2-0.8-0.1c-0.1-0.4,0-0.8,0.3-1C146.1,73.6,146.3,73.6,146.3,73.7z"
		/>
	<path class="st32" d="M111.3,84.7c0,0.4-0.2,0.7-0.5,0.7c-0.2,0-0.4-0.3-0.4-0.8c0-0.4,0.2-0.7,0.5-0.7
		C111.1,84,111.3,84.4,111.3,84.7z"/>
	<path class="st33" d="M111,84.7c0,0.4-0.2,0.6-0.4,0.6s-0.4-0.3-0.4-0.7c0-0.3,0.2-0.6,0.4-0.6C110.8,84,111,84.3,111,84.7z"/>
	<path class="st33" d="M103.1,82.8c0.2-0.6,0.5-1.3,0.8-1.8c0.2-0.4,0.5-0.7,0.8-1c0.7,0.7,1.4,1.6,1.8,2.5c0.2,0.6,0.1,1.3-0.3,1.9
		L103.1,82.8z"/>
	<path class="st33" d="M114,88.3c0.3-0.5,0.6-1,1.1-1.3c0.6-0.3,3.1-0.1,3.8,0c0.7,0.1,1.3,0.3,1.4,0.8c0,0.4,0,0.8,0,1.3
		c0,0.4-0.2,0.7-0.6,0.9c-0.4,0.3-1,0.5-1.5,0.5L114,88.3z"/>
	<path class="st18" d="M118.4,88.1c-0.5,0.6-0.8,1.2-1.1,1.9l0.8,0.4c0.5,0,1.1-0.2,1.5-0.5c0.3-0.2,0.5-0.5,0.6-0.9
		c0.1-0.4,0.1-0.8,0-1.3c-0.1-0.4-0.4-0.6-0.8-0.7C119,87.4,118.7,87.7,118.4,88.1z"/>
	<path class="st18" d="M104.8,80.2c0.1-0.2,0-0.1-0.1-0.3c-0.3,0.3-0.5,0.6-0.7,0.9c-0.4,0.6-0.7,1.3-0.9,2l0.4,0.2l0,0
		C103.8,82,104.3,81,104.8,80.2z"/>
	<path class="st10" d="M122.3,66.9l6.5,3.3c0.6,0.3,1.3,0.3,1.8,0l1.7-0.9c0.3-0.1,0.4-0.5,0.2-0.7c-0.1-0.1-0.1-0.2-0.2-0.2
		l-6.6-3.4c-0.5-0.3-1.1-0.3-1.7,0l-1.8,1c-0.3,0.1-0.4,0.5-0.2,0.7C122.1,66.7,122.2,66.8,122.3,66.9z"/>
	<path class="st15" d="M125.8,64.9c-0.5-0.3-1.1-0.3-1.7,0l-1.8,1c-0.3,0.1-0.4,0.5-0.2,0.7c0,0.1,0.1,0.2,0.2,0.2l1.5,0.8
		c1.2,0.4,2.5,0.4,3.8,0.2c0.7-0.3,1.3-0.6,1.9-1L125.8,64.9z"/>
	<path class="st18" d="M132.3,80.8l0.3-0.8c0.3,0.2,0.4,0.5,0.2,0.8c0,0.3-0.2,0.6-0.5,0.7c-0.2,0.1-0.5,0.1-0.7-0.1L132.3,80.8z"/>
	<path class="st18" d="M112.4,73.1c-0.1-0.3-0.1-0.7,0-1c0.1-0.3,0.3-0.5,0.6-0.7l-0.4-0.1c0,0-0.3,0-0.5,0.5c-0.2,0.5-0.2,0.8,0,1
		C112.2,72.9,112.3,73,112.4,73.1z"/>
</g>
<g id="_22">
	<polygon class="st34" points="167.1,81.8 165.8,81.1 126.7,103.8 125.3,103 123.9,103.9 128.1,106.3 129.6,105.5 128.1,104.6 	"/>
	<polygon class="st35" points="128.1,104.6 159,122 197.6,99.6 167.1,81.8 	"/>
	<polygon class="st34" points="198.9,100.3 197.6,99.6 159,122 157.6,121.2 156.2,122 160.4,124.5 161.9,123.6 160.3,122.8 	"/>
</g>
<g id="_10">
	
		<linearGradient id="SVGID_2_" gradientUnits="userSpaceOnUse" x1="1096.1086" y1="-585.9908" x2="1088.5269" y2="-586.0966" gradientTransform="matrix(1 0 0 -1 -902.05 -478.0902)">
		<stop  offset="2.000000e-02" style="stop-color:#562300"/>
		<stop  offset="1" style="stop-color:#EA7839"/>
	</linearGradient>
	<path class="st36" d="M188.8,106.1l0.9,3.1c0.4,0.3,0.8,0.5,1.4,0.6c0.5,0,1-0.2,1.4-0.6l1-3L188.8,106.1z"/>
	
		<radialGradient id="SVGID_3_" cx="1090.8021" cy="-574.3581" r="11.5806" gradientTransform="matrix(1 0 0 -1 -902.05 -478.0902)" gradientUnits="userSpaceOnUse">
		<stop  offset="0" style="stop-color:#75C620"/>
		<stop  offset="1" style="stop-color:#3F7A00"/>
	</radialGradient>
	<path class="st37" d="M194.9,102.3L194.9,102.3l-2.1-8.3l0,0c-0.1-0.9-0.9-1.5-1.8-1.4c-0.7,0.1-1.3,0.7-1.4,1.4l0,0l-2.1,8.3l0,0
		c-0.1,0.3-0.1,0.6-0.1,0.9c-0.1,2.1,1.5,3.9,3.7,4c2.1,0.1,3.9-1.5,4-3.7c0-0.1,0-0.2,0-0.3C195,102.9,194.9,102.6,194.9,102.3z"/>
</g>
<path class="st17" d="M70,157.1l-0.5-1.5l-0.5,1.5c-0.5,1.4-1.6,2.5-2.9,3l0,0c1.3,0.6,2.4,1.6,2.9,3l0.5,1.5L70,163
	c0.5-1.4,1.6-2.4,2.9-3l0,0C71.5,159.5,70.5,158.4,70,157.1z"/>
<polygon class="st38" points="140,150.6 140,159.5 29.8,96.5 29.8,87 "/>
<polygon class="st38" points="213.7,108.4 213.7,117.2 140,159.5 140,150.6 "/>
<path class="st17" d="M144.7,42l-0.5-1.5l-0.5,1.5c-0.5,1.4-1.6,2.4-2.9,3l0,0c1.3,0.6,2.4,1.6,2.9,3l0.5,1.5l0.5-1.5
	c0.5-1.4,1.6-2.4,2.9-3l0,0C146.2,44.5,145.2,43.4,144.7,42z"/>
<path class="st17" d="M227.9,81.6l-0.3-1l-0.3,1c-0.3,0.9-1,1.6-1.9,1.9l0,0c0.9,0.4,1.6,1.1,1.9,2l0.3,1l0.3-1c0.3-0.9,1-1.6,1.9-2
	l0,0C228.9,83.2,228.2,82.5,227.9,81.6z"/>
<path class="st17" d="M23.2,83.2l-0.3-1l-0.3,1c-0.3,0.9-1,1.6-1.9,2l0,0c0.9,0.4,1.6,1.1,1.9,2l0.3,1l0.3-1c0.3-0.9,1-1.6,1.9-2
	l0,0C24.2,84.8,23.5,84.1,23.2,83.2z"/>
<path class="st17" d="M198,26.3l-0.3-1l-0.3,1c-0.3,0.9-1,1.6-1.9,2l0,0c0.9,0.4,1.6,1.1,1.9,2l0.3,1l0.3-1c0.3-0.9,1-1.6,1.9-2l0,0
	C199,27.9,198.4,27.2,198,26.3z"/>
</svg>
